<svg width="33" height="32" viewBox="0 0 33 32" fill="none" xmlns="http://www.w3.org/2000/svg">
<path d="M12.3343 29.3337H20.3343C27.001 29.3337 29.6676 26.667 29.6676 20.0003V12.0003C29.6676 5.33366 27.001 2.66699 20.3343 2.66699H12.3343C5.66764 2.66699 3.00098 5.33366 3.00098 12.0003V20.0003C3.00098 26.667 5.66764 29.3337 12.3343 29.3337Z" stroke="#F4E1D9" stroke-width="1.33333" stroke-linecap="round" stroke-linejoin="round"/>
<path d="M16.3337 20.6663C18.911 20.6663 21.0003 18.577 21.0003 15.9997C21.0003 13.4223 18.911 11.333 16.3337 11.333C13.7563 11.333 11.667 13.4223 11.667 15.9997C11.667 18.577 13.7563 20.6663 16.3337 20.6663Z" stroke="#F4E1D9" stroke-width="1.33333" stroke-linecap="round" stroke-linejoin="round"/>
<path d="M23.8491 9.33366H23.8645" stroke="#F4E1D9" stroke-width="2.66667" stroke-linecap="round" stroke-linejoin="round"/>
</svg>
