<svg width="32" height="32" viewBox="0 0 32 32" fill="none" xmlns="http://www.w3.org/2000/svg">
<g clip-path="url(#clip0_219_925)">
<path fill-rule="evenodd" clip-rule="evenodd" d="M30.625 9C30.625 4.7915 27.2085 1.375 23 1.375H9C4.7915 1.375 1.375 4.7915 1.375 9V23C1.375 27.2085 4.7915 30.625 9 30.625H23C27.2085 30.625 30.625 27.2085 30.625 23V9ZM29.375 9V23C29.375 26.5185 26.5185 29.375 23 29.375H9C5.4815 29.375 2.625 26.5185 2.625 23V9C2.625 5.4815 5.4815 2.625 9 2.625H23C26.5185 2.625 29.375 5.4815 29.375 9Z" fill="#F4E1D9"/>
<path fill-rule="evenodd" clip-rule="evenodd" d="M11.25 12.75C11.25 12.405 10.97 12.125 10.625 12.125H6.625C6.28 12.125 6 12.405 6 12.75V25.5C6 25.845 6.28 26.125 6.625 26.125H10.625C10.97 26.125 11.25 25.845 11.25 25.5V12.75ZM10 13.375V24.875H7.25V13.375H10Z" fill="#F4E1D9"/>
<path fill-rule="evenodd" clip-rule="evenodd" d="M8.625 5.875C7.176 5.875 6 7.051 6 8.5C6 9.949 7.176 11.125 8.625 11.125C10.074 11.125 11.25 9.949 11.25 8.5C11.25 7.051 10.074 5.875 8.625 5.875ZM8.625 7.125C9.384 7.125 10 7.741 10 8.5C10 9.259 9.384 9.875 8.625 9.875C7.866 9.875 7.25 9.259 7.25 8.5C7.25 7.741 7.866 7.125 8.625 7.125Z" fill="#F4E1D9"/>
<path fill-rule="evenodd" clip-rule="evenodd" d="M17.5 13.1292V12.7497C17.5 12.4047 17.22 12.1247 16.875 12.1247H12.875C12.53 12.1247 12.25 12.4047 12.25 12.7497V24.1617C12.25 25.2457 13.129 26.1247 14.213 26.1247H16.875C17.22 26.1247 17.5 25.8447 17.5 25.4997V18.0097C17.502 17.9932 17.535 17.7272 17.7975 17.5037C18.0595 17.2812 18.5015 17.1247 19.2185 17.1247C20.5975 17.1247 20.7525 17.6987 20.7525 17.6987C20.7525 17.6987 20.75 22.8328 20.75 25.4997C20.75 25.8447 21.03 26.1247 21.375 26.1247H25.375C25.72 26.1247 26 25.8447 26 25.4997V16.8052C26.003 16.7632 26.001 16.7137 25.9935 16.6602C25.7145 14.7062 24.382 13.0647 22.5275 12.3902C20.8245 11.7702 18.935 12.0577 17.5 13.1292ZM24.75 16.7967V24.8747H22V17.7837C22.0115 17.6492 22.017 17.1892 21.6545 16.7347C21.3395 16.3402 20.682 15.8747 19.2185 15.8747C18.0815 15.8747 17.403 16.1982 16.9875 16.5517C16.2425 17.1852 16.25 17.9887 16.25 17.9887V17.9997V24.8747H14.213C13.819 24.8747 13.5 24.5557 13.5 24.1617V13.3747H16.25V14.4997C16.25 14.7462 16.395 14.9697 16.62 15.0702C16.8455 15.1707 17.1085 15.1297 17.292 14.9652C17.292 14.9652 17.5475 14.7362 17.962 14.3647C19.088 13.3547 20.6785 13.0472 22.1 13.5647C23.5085 14.0772 24.524 15.3172 24.75 16.7967Z" fill="#F4E1D9"/>
</g>
<defs>
<clipPath id="clip0_219_925">
<rect width="32" height="32" fill="white"/>
</clipPath>
</defs>
</svg>
