<svg width="33" height="32" viewBox="0 0 33 32" fill="none" xmlns="http://www.w3.org/2000/svg">
<path d="M9.86634 27.467C11.8663 28.667 14.2663 29.3337 16.6663 29.3337C23.9997 29.3337 29.9997 23.3337 29.9997 16.0003C29.9997 8.66699 23.9997 2.66699 16.6663 2.66699C9.33301 2.66699 3.33301 8.66699 3.33301 16.0003C3.33301 18.4003 3.99967 20.667 5.06634 22.667L3.92026 27.075C3.66063 28.0736 4.58491 28.976 5.57699 28.6925L9.86634 27.467Z" stroke="#F4E1D9" stroke-width="1.33333" stroke-miterlimit="10" stroke-linecap="round" stroke-linejoin="round"/>
<path d="M22.666 19.798C22.666 20.014 22.6179 20.236 22.5158 20.452C22.4136 20.668 22.2814 20.872 22.1072 21.064C21.8127 21.388 21.4882 21.622 21.1217 21.772C20.7612 21.922 20.3706 22 19.9499 22C19.337 22 18.682 21.856 17.991 21.562C17.3 21.268 16.6089 20.872 15.9239 20.374C15.2329 19.87 14.5779 19.312 13.9529 18.694C13.334 18.07 12.7752 17.416 12.2764 16.732C11.7837 16.048 11.3871 15.364 11.0987 14.686C10.8102 14.002 10.666 13.348 10.666 12.724C10.666 12.316 10.7381 11.926 10.8823 11.566C11.0266 11.2 11.2549 10.864 11.5734 10.564C11.958 10.186 12.3786 10 12.8233 10C12.9915 10 13.1598 10.036 13.31 10.108C13.4662 10.18 13.6044 10.288 13.7126 10.444L15.1067 12.406C15.2148 12.556 15.293 12.694 15.347 12.826C15.4011 12.952 15.4312 13.078 15.4312 13.192C15.4312 13.336 15.3891 13.48 15.305 13.618C15.2269 13.756 15.1127 13.9 14.9685 14.044L14.5118 14.518C14.4457 14.584 14.4156 14.662 14.4156 14.758C14.4156 14.806 14.4216 14.848 14.4337 14.896C14.4517 14.944 14.4697 14.98 14.4817 15.016C14.5899 15.214 14.7762 15.472 15.0406 15.784C15.311 16.096 15.5994 16.414 15.9119 16.732C16.2364 17.05 16.5488 17.344 16.8673 17.614C17.1798 17.878 17.4382 18.058 17.6425 18.166C17.6725 18.178 17.7086 18.196 17.7506 18.214C17.7987 18.232 17.8468 18.238 17.9009 18.238C18.003 18.238 18.0811 18.202 18.1472 18.136L18.6039 17.686C18.7541 17.536 18.8984 17.422 19.0366 17.35C19.1748 17.266 19.313 17.224 19.4632 17.224C19.5774 17.224 19.6976 17.248 19.8298 17.302C19.962 17.356 20.1002 17.434 20.2504 17.536L22.2394 18.946C22.3956 19.054 22.5038 19.18 22.5699 19.33C22.63 19.48 22.666 19.63 22.666 19.798Z" stroke="#F4E1D9" stroke-width="1.33333" stroke-miterlimit="10"/>
</svg>
