<svg width="64" height="64" viewBox="0 0 64 64" fill="none" xmlns="http://www.w3.org/2000/svg">
<g clip-path="url(#clip0_263_565)">
<circle cx="32" cy="32" r="32" fill="white"/>
<path d="M9.20361 20.736H21.2713V21.3078H16.7805L23.7689 37.9792L30.3617 21.3078H26.2444V20.736H34.7648V21.3078H31.3624L22.6175 43.3908H22.1569L12.9206 21.3078H9.20361V20.736Z" fill="#1A1A1A"/>
<path d="M51.7117 41.6931C51.91 42.2479 52.3507 42.5253 53.0337 42.5253C53.5845 42.5253 54.0802 42.37 54.5208 42.0593C54.609 42.0149 54.6751 41.9927 54.7191 41.9927C54.7852 41.9927 54.8183 42.026 54.8183 42.0926C54.8183 42.1592 54.7852 42.2257 54.7191 42.2923C54.609 42.4033 54.4327 42.5253 54.1904 42.6585C53.97 42.7694 53.6946 42.8804 53.3642 42.9914C53.0557 43.1023 52.7142 43.1911 52.3397 43.2577C51.9651 43.3464 51.5906 43.3908 51.216 43.3908C50.7754 43.3908 50.3568 43.3353 49.9602 43.2244C49.5856 43.1134 49.2552 42.9026 48.9687 42.5919C48.6603 42.259 48.429 41.8596 48.2747 41.3935C48.1425 40.9275 48.0434 40.4171 47.9773 39.8623C47.9332 39.3075 47.9002 38.7305 47.8781 38.1313C47.8781 37.5321 47.8451 36.944 47.779 36.367C47.6688 35.4128 47.4816 34.636 47.2172 34.0368C46.9748 33.4155 46.6774 32.9383 46.3249 32.6055C45.9944 32.2504 45.6309 32.0174 45.2343 31.9064C44.8377 31.7732 44.4632 31.7067 44.1106 31.7067H41.3676V42.5919H44.2098V43.1245H35.3198V42.5919H38.162V21.3028H35.3198V20.736H44.6394C45.5868 20.736 46.4791 20.8769 47.3163 21.121C48.1756 21.3651 48.9137 21.7202 49.5306 22.1862C50.1475 22.6523 50.6322 23.2293 50.9847 23.9172C51.3592 24.6052 51.5465 25.3819 51.5465 26.2474C51.5465 27.6455 51.0838 28.8106 50.1585 29.7427C49.2331 30.6525 47.9112 31.2628 46.1927 31.5735C46.8537 31.7511 47.4706 31.9508 48.0434 32.1727C48.6162 32.3724 49.123 32.6609 49.5636 33.0382C50.0042 33.3933 50.3788 33.8593 50.6872 34.4363C50.9957 35.0133 51.216 35.7456 51.3482 36.6333C51.4143 37.0772 51.4474 37.5432 51.4474 38.0314C51.4694 38.5197 51.4804 38.9968 51.4804 39.4628C51.5024 39.9289 51.5245 40.3616 51.5465 40.7611C51.5906 41.1605 51.6456 41.4712 51.7117 41.6931ZM41.3676 31.1741H44.6394C47.1511 31.1741 48.4069 29.7316 48.4069 26.8466V25.6482C48.4069 22.741 47.1511 21.3028 44.6394 21.3028H41.3665L41.3676 31.1741Z" fill="#1A1A1A"/>
<rect y="29.09" width="64" height="6.05546" rx="3.02773" fill="white"/>
<path d="M3.43015 32.9307V31.469H4.09416C4.25286 31.469 4.39276 31.4996 4.51387 31.5609C4.63498 31.6207 4.72964 31.705 4.79785 31.8135C4.86606 31.9221 4.90016 32.0509 4.90016 32.1998C4.90016 32.3474 4.86606 32.4762 4.79785 32.5861C4.72964 32.6947 4.63498 32.7796 4.51387 32.8409C4.39276 32.9007 4.25286 32.9307 4.09416 32.9307H3.43015ZM3.76842 32.6529H4.07746C4.1749 32.6529 4.25912 32.6349 4.33012 32.5987C4.4025 32.5611 4.45818 32.5082 4.49716 32.44C4.53753 32.3718 4.55772 32.2917 4.55772 32.1998C4.55772 32.1066 4.53753 32.0265 4.49716 31.9597C4.45818 31.8915 4.4025 31.8393 4.33012 31.8031C4.25912 31.7655 4.1749 31.7467 4.07746 31.7467H3.76842V32.6529ZM5.57289 32.9307V31.469H6.20558C6.33643 31.469 6.44919 31.4906 6.54385 31.5337C6.63851 31.5755 6.71159 31.636 6.7631 31.7154C6.81461 31.7947 6.84036 31.8894 6.84036 31.9994C6.84036 32.108 6.81461 32.2019 6.7631 32.2813C6.71159 32.3592 6.63851 32.4191 6.54385 32.4608C6.44919 32.5026 6.33643 32.5235 6.20558 32.5235H5.76082L5.91116 32.3752V32.9307H5.57289ZM6.50209 32.9307L6.13667 32.4003H6.49791L6.86751 32.9307H6.50209ZM5.91116 32.4128L5.76082 32.2541H6.18679C6.29119 32.2541 6.36915 32.2318 6.42065 32.1873C6.47216 32.1414 6.49791 32.0787 6.49791 31.9994C6.49791 31.9186 6.47216 31.856 6.42065 31.8114C6.36915 31.7669 6.29119 31.7446 6.18679 31.7446H5.76082L5.91116 31.5838V32.4128ZM7.83711 32.0578H8.5408V32.3209H7.83711V32.0578ZM7.86217 32.6592H8.65773V32.9307H7.52599V31.469H8.63059V31.7405H7.86217V32.6592ZM9.1524 32.9307L9.80388 31.469H10.138L10.7916 32.9307H10.4366L9.90202 31.6402H10.0357L9.49902 32.9307H9.1524ZM9.47814 32.6175L9.56793 32.3606H10.3196L10.4115 32.6175H9.47814ZM11.3608 32.9307V31.469H11.6406L12.2629 32.5005H12.1146L12.7264 31.469H13.0041L13.0083 32.9307H12.6909L12.6888 31.9555H12.7473L12.2587 32.7761H12.1063L11.6072 31.9555H11.6782V32.9307H11.3608Z" fill="#1A1A1A"/>
<path d="M15.4932 32.0578H16.1969V32.3209H15.4932V32.0578ZM15.5183 32.6592H16.3138V32.9307H15.1821V31.469H16.2867V31.7405H15.5183V32.6592ZM17.4187 32.9307L16.7881 31.469H17.1535L17.7048 32.7636H17.4897L18.0493 31.469H18.3855L17.7528 32.9307H17.4187ZM19.2363 32.0578H19.94V32.3209H19.2363V32.0578ZM19.2614 32.6592H20.0569V32.9307H18.9252V31.469H20.0298V31.7405H19.2614V32.6592ZM20.7437 32.9307V31.469H21.0235L21.8859 32.5214H21.7501V31.469H22.0842V32.9307H21.8065L20.9421 31.8783H21.0778V32.9307H20.7437ZM23.1505 32.9307V31.7446H22.6827V31.469H23.9565V31.7446H23.4887V32.9307H23.1505ZM25.0261 32.9557C24.9092 32.9557 24.7972 32.9404 24.69 32.9098C24.5828 32.8778 24.4965 32.8367 24.431 32.7866L24.5459 32.5318C24.6085 32.5764 24.6823 32.6133 24.7672 32.6425C24.8535 32.6703 24.9405 32.6843 25.0282 32.6843C25.0951 32.6843 25.1486 32.678 25.189 32.6655C25.2308 32.6516 25.2614 32.6328 25.2809 32.6091C25.3004 32.5854 25.3101 32.5583 25.3101 32.5277C25.3101 32.4887 25.2948 32.4581 25.2642 32.4358C25.2336 32.4121 25.1932 32.3933 25.1431 32.3794C25.093 32.3641 25.0373 32.3502 24.976 32.3376C24.9162 32.3237 24.8556 32.307 24.7944 32.2875C24.7345 32.268 24.6795 32.243 24.6294 32.2124C24.5793 32.1817 24.5382 32.1414 24.5062 32.0913C24.4756 32.0411 24.4603 31.9771 24.4603 31.8991C24.4603 31.8156 24.4825 31.7398 24.5271 31.6715C24.573 31.6019 24.6412 31.547 24.7317 31.5066C24.8236 31.4648 24.9384 31.4439 25.0763 31.4439C25.1681 31.4439 25.2586 31.4551 25.3477 31.4774C25.4368 31.4982 25.5155 31.5303 25.5837 31.5734L25.4793 31.8302C25.4111 31.7913 25.3428 31.7627 25.2746 31.7446C25.2064 31.7251 25.1396 31.7154 25.0742 31.7154C25.0087 31.7154 24.9552 31.7231 24.9134 31.7384C24.8716 31.7537 24.8417 31.7739 24.8236 31.7989C24.8055 31.8226 24.7965 31.8504 24.7965 31.8824C24.7965 31.92 24.8118 31.9507 24.8424 31.9743C24.873 31.9966 24.9134 32.0147 24.9635 32.0286C25.0136 32.0425 25.0686 32.0564 25.1285 32.0704C25.1897 32.0843 25.2503 32.1003 25.3101 32.1184C25.3714 32.1365 25.4271 32.1609 25.4772 32.1915C25.5273 32.2221 25.5677 32.2625 25.5983 32.3126C25.6303 32.3627 25.6463 32.426 25.6463 32.5026C25.6463 32.5847 25.6233 32.6599 25.5774 32.7281C25.5315 32.7963 25.4626 32.8513 25.3707 32.8931C25.2802 32.9348 25.1654 32.9557 25.0261 32.9557Z" fill="#1A1A1A"/>
<path d="M27.4504 32.9307L28.1019 31.469H28.436L29.0896 32.9307H28.7346L28.2001 31.6402H28.3337L27.7971 32.9307H27.4504ZM27.7762 32.6175L27.866 32.3606H28.6177L28.7096 32.6175H27.7762ZM29.6589 32.9307V31.469H29.9387L30.801 32.5214H30.6653V31.469H30.9994V32.9307H30.7217L29.8572 31.8783H29.993V32.9307H29.6589ZM31.7629 32.9307V31.469H32.4269C32.5856 31.469 32.7255 31.4996 32.8466 31.5609C32.9677 31.6207 33.0623 31.705 33.1306 31.8135C33.1988 31.9221 33.2329 32.0509 33.2329 32.1998C33.2329 32.3474 33.1988 32.4762 33.1306 32.5861C33.0623 32.6947 32.9677 32.7796 32.8466 32.8409C32.7255 32.9007 32.5856 32.9307 32.4269 32.9307H31.7629ZM32.1011 32.6529H32.4102C32.5076 32.6529 32.5918 32.6349 32.6628 32.5987C32.7352 32.5611 32.7909 32.5082 32.8299 32.44C32.8702 32.3718 32.8904 32.2917 32.8904 32.1998C32.8904 32.1066 32.8702 32.0265 32.8299 31.9597C32.7909 31.8915 32.7352 31.8393 32.6628 31.8031C32.5918 31.7655 32.5076 31.7467 32.4102 31.7467H32.1011V32.6529Z" fill="#1A1A1A"/>
<path d="M35.5997 32.0578H36.3034V32.3209H35.5997V32.0578ZM35.6247 32.6592H36.4203V32.9307H35.2885V31.469H36.3931V31.7405H35.6247V32.6592ZM37.1071 32.9307V31.469H37.3869L38.2492 32.5214H38.1135V31.469H38.4476V32.9307H38.1699L37.3054 31.8783H37.4412V32.9307H37.1071ZM39.5138 32.9307V31.7446H39.0461V31.469H40.3198V31.7446H39.8521V32.9307H39.5138ZM41.2306 32.0578H41.9343V32.3209H41.2306V32.0578ZM41.2556 32.6592H42.0512V32.9307H40.9195V31.469H42.0241V31.7405H41.2556V32.6592ZM42.738 32.9307V31.469H43.3707C43.5015 31.469 43.6143 31.4906 43.7089 31.5337C43.8036 31.5755 43.8767 31.636 43.9282 31.7154C43.9797 31.7947 44.0054 31.8894 44.0054 31.9994C44.0054 32.108 43.9797 32.2019 43.9282 32.2813C43.8767 32.3592 43.8036 32.4191 43.7089 32.4608C43.6143 32.5026 43.5015 32.5235 43.3707 32.5235H42.9259L43.0762 32.3752V32.9307H42.738ZM43.6672 32.9307L43.3018 32.4003H43.663L44.0326 32.9307H43.6672ZM43.0762 32.4128L42.9259 32.2541H43.3519C43.4563 32.2541 43.5342 32.2318 43.5857 32.1873C43.6372 32.1414 43.663 32.0787 43.663 31.9994C43.663 31.9186 43.6372 31.856 43.5857 31.8114C43.5342 31.7669 43.4563 31.7446 43.3519 31.7446H42.9259L43.0762 31.5838V32.4128ZM44.9735 32.9307V31.7446H44.5057V31.469H45.7795V31.7446H45.3117V32.9307H44.9735ZM46.1136 32.9307L46.7651 31.469H47.0992L47.7527 32.9307H47.3977L46.8632 31.6402H46.9968L46.4602 32.9307H46.1136ZM46.4393 32.6175L46.5291 32.3606H47.2808L47.3727 32.6175H46.4393ZM48.322 32.9307V31.469H48.6603V32.9307H48.322ZM49.4248 32.9307V31.469H49.7046L50.5669 32.5214H50.4312V31.469H50.7653V32.9307H50.4876L49.6231 31.8783H49.7589V32.9307H49.4248ZM51.5288 32.9307V31.469H51.8086L52.4308 32.5005H52.2826L52.8944 31.469H53.1721L53.1763 32.9307H52.8589L52.8568 31.9555H52.9153L52.4266 32.7761H52.2742L51.7752 31.9555H51.8461V32.9307H51.5288ZM54.2518 32.0578H54.9555V32.3209H54.2518V32.0578ZM54.2769 32.6592H55.0724V32.9307H53.9407V31.469H55.0453V31.7405H54.2769V32.6592ZM55.7592 32.9307V31.469H56.039L56.9014 32.5214H56.7656V31.469H57.0997V32.9307H56.822L55.9576 31.8783H56.0933V32.9307H55.7592ZM58.166 32.9307V31.7446H57.6982V31.469H58.972V31.7446H58.5042V32.9307H58.166ZM60.0416 32.9557C59.9247 32.9557 59.8127 32.9404 59.7055 32.9098C59.5983 32.8778 59.512 32.8367 59.4465 32.7866L59.5614 32.5318C59.624 32.5764 59.6978 32.6133 59.7827 32.6425C59.869 32.6703 59.956 32.6843 60.0437 32.6843C60.1106 32.6843 60.1642 32.678 60.2045 32.6655C60.2463 32.6516 60.2769 32.6328 60.2964 32.6091C60.3159 32.5854 60.3256 32.5583 60.3256 32.5277C60.3256 32.4887 60.3103 32.4581 60.2797 32.4358C60.2491 32.4121 60.2087 32.3933 60.1586 32.3794C60.1085 32.3641 60.0528 32.3502 59.9915 32.3376C59.9317 32.3237 59.8711 32.307 59.8099 32.2875C59.75 32.268 59.695 32.243 59.6449 32.2124C59.5948 32.1817 59.5537 32.1414 59.5217 32.0913C59.4911 32.0411 59.4758 31.9771 59.4758 31.8991C59.4758 31.8156 59.498 31.7398 59.5426 31.6715C59.5885 31.6019 59.6567 31.547 59.7472 31.5066C59.8391 31.4648 59.9539 31.4439 60.0918 31.4439C60.1836 31.4439 60.2741 31.4551 60.3632 31.4774C60.4523 31.4982 60.531 31.5303 60.5992 31.5734L60.4948 31.8302C60.4266 31.7913 60.3583 31.7627 60.2901 31.7446C60.2219 31.7251 60.1551 31.7154 60.0897 31.7154C60.0242 31.7154 59.9707 31.7231 59.9289 31.7384C59.8871 31.7537 59.8572 31.7739 59.8391 31.7989C59.821 31.8226 59.812 31.8504 59.812 31.8824C59.812 31.92 59.8273 31.9507 59.8579 31.9743C59.8885 31.9966 59.9289 32.0147 59.979 32.0286C60.0291 32.0425 60.0841 32.0564 60.144 32.0704C60.2052 32.0843 60.2658 32.1003 60.3256 32.1184C60.3869 32.1365 60.4426 32.1609 60.4927 32.1915C60.5428 32.2221 60.5832 32.2625 60.6138 32.3126C60.6458 32.3627 60.6618 32.426 60.6618 32.5026C60.6618 32.5847 60.6388 32.6599 60.5929 32.7281C60.547 32.7963 60.4781 32.8513 60.3862 32.8931C60.2957 32.9348 60.1809 32.9557 60.0416 32.9557Z" fill="#1A1A1A"/>
</g>
<defs>
<clipPath id="clip0_263_565">
<rect width="64" height="64" fill="white"/>
</clipPath>
</defs>
</svg>
