<svg width="452" height="160" viewBox="0 0 452 160" fill="none" xmlns="http://www.w3.org/2000/svg">
<path d="M65 0H150.228V4.03861H118.512L167.867 121.781L214.429 4.03861H185.351V0H245.526V4.03861H221.496L159.735 160H156.483L91.251 4.03861H65V0Z" fill="#1A1A1A"/>
<path d="M365.215 148.01C366.616 151.928 369.728 153.887 374.551 153.887C378.441 153.887 381.942 152.79 385.054 150.596C385.677 150.283 386.144 150.126 386.455 150.126C386.922 150.126 387.155 150.361 387.155 150.831C387.155 151.301 386.922 151.772 386.455 152.242C385.677 153.025 384.432 153.887 382.72 154.828C381.164 155.611 379.219 156.395 376.885 157.179C374.707 157.962 372.295 158.589 369.65 159.06C367.005 159.687 364.359 160 361.714 160C358.602 160 355.646 159.608 352.845 158.825C350.2 158.041 347.866 156.552 345.843 154.358C343.664 152.007 342.03 149.185 340.941 145.894C340.008 142.603 339.307 138.998 338.841 135.08C338.529 131.161 338.296 127.086 338.14 122.855C338.14 118.623 337.907 114.469 337.44 110.394C336.662 103.655 335.34 98.1692 333.472 93.9375C331.761 89.549 329.66 86.1792 327.17 83.8283C324.836 81.3206 322.269 79.6749 319.468 78.8912C316.667 77.9508 314.022 77.4806 311.532 77.4806H292.16V154.358H312.233V158.119H249.447V154.358H269.52V4.00302H249.447V0H315.267C321.958 0 328.26 0.99543 334.173 2.71949C340.241 4.44353 345.454 6.95125 349.811 10.2426C354.167 13.534 357.591 17.609 360.08 22.4677C362.726 27.3264 364.048 32.812 364.048 38.9246C364.048 48.7987 360.781 57.0271 354.245 63.6098C347.71 70.0359 338.374 74.346 326.237 76.5402C330.905 77.7941 335.262 79.2047 339.307 80.772C343.353 82.1826 346.932 84.2201 350.044 86.8845C353.156 89.3923 355.801 92.6836 357.98 96.7587C360.158 100.834 361.714 106.006 362.648 112.275C363.115 115.41 363.348 118.701 363.348 122.149C363.504 125.597 363.581 128.967 363.581 132.258C363.737 135.55 363.893 138.606 364.048 141.427C364.359 144.248 364.748 146.443 365.215 148.01ZM292.16 73.7191H315.267C333.006 73.7191 341.875 63.5315 341.875 43.1563V34.6928C341.875 14.1609 333.006 4.00302 315.267 4.00302H292.152L292.16 73.7191Z" fill="#1A1A1A"/>
<rect y="59" width="452" height="42.7667" fill="#FFF8F0"/>
<path d="M24.224 86V75.677H28.9136C30.0344 75.677 31.0224 75.8933 31.8778 76.3259C32.7331 76.7486 33.4017 77.3434 33.8834 78.1103C34.3651 78.8771 34.606 79.7865 34.606 80.8385C34.606 81.8806 34.3651 82.79 33.8834 83.5667C33.4017 84.3336 32.7331 84.9333 31.8778 85.3659C31.0224 85.7886 30.0344 86 28.9136 86H24.224ZM26.6131 84.0386H28.7956C29.4838 84.0386 30.0786 83.9108 30.58 83.6552C31.0913 83.3898 31.4845 83.0162 31.7598 82.5344C32.0449 82.0527 32.1875 81.4874 32.1875 80.8385C32.1875 80.1798 32.0449 79.6145 31.7598 79.1426C31.4845 78.6608 31.0913 78.2922 30.58 78.0365C30.0786 77.7711 29.4838 77.6384 28.7956 77.6384H26.6131V84.0386ZM39.3571 86V75.677H43.8255C44.7497 75.677 45.546 75.8294 46.2145 76.1342C46.8831 76.4291 47.3992 76.8568 47.763 77.4172C48.1268 77.9776 48.3086 78.6461 48.3086 79.4228C48.3086 80.1896 48.1268 80.8532 47.763 81.4136C47.3992 81.9642 46.8831 82.3869 46.2145 82.6819C45.546 82.9768 44.7497 83.1243 43.8255 83.1243H40.6844L41.7462 82.0773V86H39.3571ZM45.9196 86L43.3388 82.2542H45.8901L48.5003 86H45.9196ZM41.7462 82.3427L40.6844 81.2219H43.6928C44.4301 81.2219 44.9807 81.0646 45.3445 80.75C45.7082 80.4256 45.8901 79.9832 45.8901 79.4228C45.8901 78.8526 45.7082 78.4101 45.3445 78.0955C44.9807 77.7809 44.4301 77.6236 43.6928 77.6236H40.6844L41.7462 76.4881V82.3427ZM55.3482 79.8357H60.318V81.6938H55.3482V79.8357ZM55.5252 84.0829H61.1438V86H53.1509V75.677H60.9521V77.5941H55.5252V84.0829ZM64.6374 86L69.2385 75.677H71.5981L76.2139 86H73.7069L69.9316 76.8863H70.8755L67.0854 86H64.6374ZM66.938 83.7879L67.5721 81.974H72.8811L73.5299 83.7879H66.938ZM80.2344 86V75.677H82.2105L86.6051 82.9621H85.5581L89.879 75.677H91.8404L91.8699 86H89.6283L89.6135 79.1131H90.0265L86.5756 84.9087H85.4991L81.9745 79.1131H82.4759V86H80.2344Z" fill="#1A1A1A"/>
<path d="M109.421 79.8357H114.391V81.6938H109.421V79.8357ZM109.598 84.0829H115.217V86H107.224V75.677H115.025V77.5941H109.598V84.0829ZM123.02 86L118.567 75.677H121.147L125.041 84.8202H123.522L127.474 75.677H129.848L125.38 86H123.02ZM135.857 79.8357H140.827V81.6938H135.857V79.8357ZM136.034 84.0829H141.652V86H133.659V75.677H141.461V77.5941H136.034V84.0829ZM146.503 86V75.677H148.479L154.569 83.1096H153.611V75.677H155.97V86H154.009L147.904 78.5674H148.862V86H146.503ZM163.501 86V77.6236H160.197V75.677H169.193V77.6236H165.89V86H163.501ZM176.748 86.177C175.922 86.177 175.13 86.0688 174.373 85.8525C173.616 85.6264 173.007 85.3364 172.545 84.9824L173.356 83.1833C173.798 83.4979 174.319 83.7584 174.919 83.9649C175.528 84.1615 176.143 84.2598 176.762 84.2598C177.234 84.2598 177.613 84.2156 177.898 84.1271C178.193 84.0288 178.409 83.8961 178.547 83.7289C178.684 83.5618 178.753 83.3701 178.753 83.1538C178.753 82.8785 178.645 82.6622 178.429 82.5049C178.212 82.3378 177.927 82.2051 177.573 82.1068C177.219 81.9986 176.826 81.9003 176.394 81.8118C175.971 81.7135 175.543 81.5955 175.111 81.4579C174.688 81.3202 174.3 81.1433 173.946 80.927C173.592 80.7107 173.302 80.4256 173.076 80.0716C172.859 79.7177 172.751 79.2655 172.751 78.7149C172.751 78.125 172.908 77.5892 173.223 77.1075C173.547 76.6159 174.029 76.2276 174.668 75.9424C175.317 75.6475 176.128 75.5 177.102 75.5C177.75 75.5 178.389 75.5787 179.019 75.736C179.648 75.8835 180.203 76.1096 180.685 76.4144L179.948 78.2283C179.466 77.953 178.984 77.7514 178.502 77.6236C178.021 77.486 177.549 77.4172 177.087 77.4172C176.625 77.4172 176.246 77.4712 175.951 77.5794C175.656 77.6875 175.445 77.8301 175.317 78.007C175.189 78.1742 175.125 78.3708 175.125 78.5969C175.125 78.8624 175.234 79.0787 175.45 79.2458C175.666 79.4031 175.951 79.5309 176.305 79.6292C176.659 79.7275 177.047 79.8259 177.47 79.9242C177.903 80.0225 178.33 80.1356 178.753 80.2634C179.186 80.3912 179.579 80.5632 179.933 80.7795C180.287 80.9958 180.572 81.2809 180.788 81.6348C181.014 81.9888 181.127 82.4361 181.127 82.9768C181.127 83.5569 180.965 84.0878 180.641 84.5695C180.316 85.0513 179.83 85.4396 179.181 85.7346C178.542 86.0295 177.731 86.177 176.748 86.177Z" fill="#1A1A1A"/>
<path d="M193.867 86L198.468 75.677H200.828L205.444 86H202.937L199.162 76.8863H200.105L196.315 86H193.867ZM196.168 83.7879L196.802 81.974H202.111L202.76 83.7879H196.168ZM209.464 86V75.677H211.44L217.531 83.1096H216.572V75.677H218.932V86H216.971L210.865 78.5674H211.824V86H209.464ZM224.324 86V75.677H229.013C230.134 75.677 231.122 75.8933 231.977 76.3259C232.833 76.7486 233.501 77.3434 233.983 78.1103C234.465 78.8771 234.706 79.7865 234.706 80.8385C234.706 81.8806 234.465 82.79 233.983 83.5667C233.501 84.3336 232.833 84.9333 231.977 85.3659C231.122 85.7886 230.134 86 229.013 86H224.324ZM226.713 84.0386H228.895C229.584 84.0386 230.178 83.9108 230.68 83.6552C231.191 83.3898 231.584 83.0162 231.859 82.5344C232.145 82.0527 232.287 81.4874 232.287 80.8385C232.287 80.1798 232.145 79.6145 231.859 79.1426C231.584 78.6608 231.191 78.2922 230.68 78.0365C230.178 77.7711 229.584 77.6384 228.895 77.6384H226.713V84.0386Z" fill="#1A1A1A"/>
<path d="M251.421 79.8357H256.391V81.6938H251.421V79.8357ZM251.598 84.0829H257.217V86H249.224V75.677H257.025V77.5941H251.598V84.0829ZM262.067 86V75.677H264.043L270.134 83.1096H269.175V75.677H271.535V86H269.574L263.468 78.5674H264.427V86H262.067ZM279.065 86V77.6236H275.762V75.677H284.757V77.6236H281.454V86H279.065ZM291.19 79.8357H296.159V81.6938H291.19V79.8357ZM291.367 84.0829H296.985V86H288.992V75.677H296.794V77.5941H291.367V84.0829ZM301.836 86V75.677H306.304C307.228 75.677 308.024 75.8294 308.693 76.1342C309.362 76.4291 309.878 76.8568 310.241 77.4172C310.605 77.9776 310.787 78.6461 310.787 79.4228C310.787 80.1896 310.605 80.8532 310.241 81.4136C309.878 81.9642 309.362 82.3869 308.693 82.6819C308.024 82.9768 307.228 83.1243 306.304 83.1243H303.163L304.225 82.0773V86H301.836ZM308.398 86L305.817 82.2542H308.369L310.979 86H308.398ZM304.225 82.3427L303.163 81.2219H306.171C306.909 81.2219 307.459 81.0646 307.823 80.75C308.187 80.4256 308.369 79.9832 308.369 79.4228C308.369 78.8526 308.187 78.4101 307.823 78.0955C307.459 77.7809 306.909 77.6236 306.171 77.6236H303.163L304.225 76.4881V82.3427ZM317.624 86V77.6236H314.32V75.677H323.316V77.6236H320.013V86H317.624ZM325.676 86L330.277 75.677H332.636L337.252 86H334.745L330.97 76.8863H331.914L328.124 86H325.676ZM327.976 83.7879L328.61 81.974H333.919L334.568 83.7879H327.976ZM341.273 86V75.677H343.662V86H341.273ZM349.061 86V75.677H351.037L357.128 83.1096H356.169V75.677H358.529V86H356.567L350.462 78.5674H351.421V86H349.061ZM363.921 86V75.677H365.897L370.291 82.9621H369.244L373.565 75.677H375.527L375.556 86H373.314L373.3 79.1131H373.713L370.262 84.9087H369.185L365.661 79.1131H366.162V86H363.921ZM383.152 79.8357H388.122V81.6938H383.152V79.8357ZM383.329 84.0829H388.948V86H380.955V75.677H388.756V77.5941H383.329V84.0829ZM393.798 86V75.677H395.774L401.865 83.1096H400.906V75.677H403.266V86H401.304L395.199 78.5674H396.157V86H393.798ZM410.796 86V77.6236H407.492V75.677H416.488V77.6236H413.185V86H410.796ZM424.043 86.177C423.217 86.177 422.425 86.0688 421.668 85.8525C420.911 85.6264 420.302 85.3364 419.84 84.9824L420.651 83.1833C421.093 83.4979 421.614 83.7584 422.214 83.9649C422.824 84.1615 423.438 84.2598 424.058 84.2598C424.529 84.2598 424.908 84.2156 425.193 84.1271C425.488 84.0288 425.704 83.8961 425.842 83.7289C425.98 83.5618 426.048 83.3701 426.048 83.1538C426.048 82.8785 425.94 82.6622 425.724 82.5049C425.508 82.3378 425.223 82.2051 424.869 82.1068C424.515 81.9986 424.121 81.9003 423.689 81.8118C423.266 81.7135 422.838 81.5955 422.406 81.4579C421.983 81.3202 421.595 81.1433 421.241 80.927C420.887 80.7107 420.597 80.4256 420.371 80.0716C420.154 79.7177 420.046 79.2655 420.046 78.7149C420.046 78.125 420.204 77.5892 420.518 77.1075C420.843 76.6159 421.324 76.2276 421.963 75.9424C422.612 75.6475 423.423 75.5 424.397 75.5C425.046 75.5 425.685 75.5787 426.314 75.736C426.943 75.8835 427.499 76.1096 427.98 76.4144L427.243 78.2283C426.761 77.953 426.279 77.7514 425.798 77.6236C425.316 77.486 424.844 77.4172 424.382 77.4172C423.92 77.4172 423.541 77.4712 423.246 77.5794C422.951 77.6875 422.74 77.8301 422.612 78.007C422.484 78.1742 422.421 78.3708 422.421 78.5969C422.421 78.8624 422.529 79.0787 422.745 79.2458C422.961 79.4031 423.246 79.5309 423.6 79.6292C423.954 79.7275 424.343 79.8259 424.765 79.9242C425.198 80.0225 425.626 80.1356 426.048 80.2634C426.481 80.3912 426.874 80.5632 427.228 80.7795C427.582 80.9958 427.867 81.2809 428.083 81.6348C428.31 81.9888 428.423 82.4361 428.423 82.9768C428.423 83.5569 428.26 84.0878 427.936 84.5695C427.612 85.0513 427.125 85.4396 426.476 85.7346C425.837 86.0295 425.026 86.177 424.043 86.177Z" fill="#1A1A1A"/>
</svg>
