<svg xmlns="http://www.w3.org/2000/svg" xml:space="preserve" width="10in" height="10in" version="1.1" style="shape-rendering:geometricPrecision; text-rendering:geometricPrecision; image-rendering:optimizeQuality; fill-rule:evenodd; clip-rule:evenodd"
viewBox="0 0 10000 10000"
 xmlns:xlink="http://www.w3.org/1999/xlink"
 xmlns:xodm="http://www.corel.com/coreldraw/odm/2003">
 <defs>
  <style type="text/css">
   <![CDATA[
    .str0 {stroke:#FEFEFE;stroke-width:67.95;stroke-miterlimit:22.9256}
    .fil4 {fill:none;fill-rule:nonzero}
    .fil6 {fill:#2B2A29;fill-rule:nonzero}
    .fil3 {fill:url(#id0)}
    .fil2 {fill:url(#id1)}
    .fil1 {fill:url(#id2)}
    .fil0 {fill:url(#id3)}
    .fil5 {fill:url(#id4);fill-rule:nonzero}
   ]]>
  </style>
  <linearGradient id="id0" gradientUnits="userSpaceOnUse" x1="4994.13" y1="5761.29" x2="6147.56" y2="3416.14">
   <stop offset="0" style="stop-opacity:1; stop-color:#2B2A29"/>
   <stop offset="1" style="stop-opacity:1; stop-color:#A2276A"/>
  </linearGradient>
  <linearGradient id="id1" gradientUnits="userSpaceOnUse" xlink:href="#id0" x1="5843.59" y1="3377.28" x2="4866" y2="4216.41">
  </linearGradient>
  <linearGradient id="id2" gradientUnits="userSpaceOnUse" x1="4885.32" y1="5613.43" x2="4365.01" y2="3707.55">
   <stop offset="0" style="stop-opacity:1; stop-color:#FC614F"/>
   <stop offset="0.388235" style="stop-opacity:1; stop-color:#FCA477"/>
   <stop offset="1" style="stop-opacity:1; stop-color:#FCE89F"/>
  </linearGradient>
  <linearGradient id="id3" gradientUnits="userSpaceOnUse" x1="4508.62" y1="3887.69" x2="4693.85" y2="3731.18">
   <stop offset="0" style="stop-opacity:1; stop-color:#E97359"/>
   <stop offset="0.619608" style="stop-opacity:1; stop-color:#EC895B"/>
   <stop offset="1" style="stop-opacity:1; stop-color:#F09F5E"/>
  </linearGradient>
  <linearGradient id="id4" gradientUnits="userSpaceOnUse" xlink:href="#id0" x1="4713.7" y1="6592.81" x2="4708.04" y2="5905.88">
  </linearGradient>
 </defs>
 <g id="Layer_x0020_1">
  <metadata id="CorelCorpID_0Corel-Layer"/>
  <path class="fil0" d="M4612.14 3930.46l292.48 -215.03c0,0 -214.52,-152.38 -365.81,-41.34 -151.28,111.04 -70.19,259.49 -70.19,259.49l143.51 -3.12z"/>
  <path class="fil1" d="M4839.38 5733.43c-328.1,-504.89 -774.53,-1143.9 -919.74,-1382.76 -145.2,-238.87 83.69,-453.41 302.75,-569.11 219.07,-115.7 434.04,-268.72 682.23,-66.13 -58.45,-27.76 -143.02,-95.69 -270.7,-83.71 -127.69,11.98 -239.43,174.74 -114.06,495.08 125.38,320.34 315.42,663.24 537.51,1045.13l-218 561.51z"/>
  <path class="fil2" d="M4673.48 3969.15l969.2 -668.15c0,0 117.96,-54.74 180.24,0 62.28,54.74 75.59,389 -60.35,474.78 -135.94,85.78 -477.57,317.94 -534.19,346.25 -56.63,28.31 -153.69,37.81 -260.47,-5.66 -106.78,-43.46 -203.61,-98.57 -294.44,-147.22z"/>
  <path class="fil3" d="M4839.38 5733.43c304.26,-605.71 635.33,-1266.48 814.64,-1692.94 179.31,-426.46 340.35,-798.63 -11.33,-739.49 58.51,-28.31 96.7,-67.63 175.53,-84.94 78.84,-17.3 145.33,35.86 200.07,126.46 88.08,205.73 240.33,332.19 117.02,600.2 -281.85,593.91 -631.66,1184.05 -1015.44,1725.11 -43.56,77.21 -155.77,138.44 -280.48,65.59z"/>
  <g>
   <path class="fil4 str0" d="M1586.22 6142.11l-138.78 401.1 -143.35 0 -139.35 -401.1 119.93 0 91.38 289.59 90.81 -289.59 119.36 0zm391.43 401.1l-79.95 -147.92 -11.99 0 0 147.92 -111.94 0 0 -401.1 176.47 0c32.36,0 59.78,5.59 82.24,16.78 22.46,11.19 39.4,26.55 50.83,46.08 11.42,19.54 17.13,41.44 17.13,65.71 0,27.31 -7.52,51.3 -22.56,71.97 -15.04,20.67 -37.03,35.37 -65.96,44.09l90.81 156.46 -125.07 0zm-91.94 -224.16l55.4 0c15.23,0 26.65,-3.6 34.26,-10.81 7.61,-7.2 11.43,-17.64 11.43,-31.29 0,-12.9 -3.91,-23.04 -11.71,-30.44 -7.81,-7.4 -19.13,-11.09 -33.98,-11.09l-55.4 0 0 83.63zm1150.09 -176.94l0 401.1 -111.94 0 0 -221.31 -75.96 221.31 -93.66 0 -76.53 -223.02 0 223.02 -111.94 0 0 -401.1 135.35 0 101.08 260.57 98.8 -260.57 134.78 0zm326.33 0l0 232.7c0,21.62 5.04,38.31 15.13,50.07 10.09,11.76 25.41,17.64 45.97,17.64 20.56,0 36.08,-5.97 46.55,-17.92 10.47,-11.95 15.7,-28.54 15.7,-49.78l0 -232.7 111.94 0 0 232.7c0,36.79 -7.8,68.18 -23.41,94.16 -15.61,25.98 -36.84,45.51 -63.68,58.6 -26.84,13.09 -56.63,19.63 -89.38,19.63 -32.74,0 -61.96,-6.54 -87.66,-19.63 -25.7,-13.09 -45.88,-32.52 -60.54,-58.31 -14.66,-25.79 -21.99,-57.28 -21.99,-94.44l0 -232.7 111.37 0zm561.63 315.76l125.07 0 0 85.34 -237.01 0 0 -401.1 111.94 0 0 315.76zm624.44 -315.76l0 88.75 -107.37 0 0 312.35 -111.94 0 0 -312.35 -106.22 0 0 -88.75 325.53 0zm306.34 0l0 401.1 -111.94 0 0 -401.1 111.94 0zm368.59 405.09c-46.83,0 -85.29,-11.09 -115.36,-33.28 -30.08,-22.19 -46.26,-53.95 -48.54,-95.3l119.36 0c1.14,14.04 5.33,24.28 12.57,30.72 7.23,6.45 16.56,9.67 27.98,9.67 10.28,0 18.75,-2.56 25.41,-7.68 6.66,-5.12 9.99,-12.23 9.99,-21.33 0,-11.76 -5.52,-20.86 -16.56,-27.31 -11.04,-6.45 -28.94,-13.65 -53.69,-21.62 -26.27,-8.72 -47.5,-17.17 -63.68,-25.32 -16.18,-8.15 -30.27,-20.1 -42.26,-35.84 -11.99,-15.74 -17.99,-36.32 -17.99,-61.73 0,-25.79 6.47,-47.89 19.42,-66.28 12.94,-18.4 30.84,-32.33 53.68,-41.82 22.85,-9.48 48.74,-14.22 77.67,-14.22 46.83,0 84.24,10.91 112.22,32.72 27.98,21.81 42.93,52.44 44.83,91.88l-121.65 0c-0.38,-12.14 -4.09,-21.24 -11.14,-27.31 -7.04,-6.07 -16.09,-9.11 -27.13,-9.11 -8.37,0 -15.23,2.47 -20.56,7.4 -5.33,4.93 -8,11.95 -8,21.05 0,7.59 2.95,14.13 8.85,19.63 5.9,5.5 13.23,10.24 21.99,14.22 8.76,3.98 21.7,9.01 38.83,15.08 25.51,8.72 46.54,17.35 63.11,25.89 16.56,8.53 30.84,20.48 42.83,35.84 11.99,15.36 17.99,34.8 17.99,58.31 0,23.89 -6,45.33 -17.99,64.29 -11.99,18.96 -29.32,33.94 -51.97,44.94 -22.65,11 -49.4,16.5 -80.24,16.5zm466.82 -315.76l0 65.43 128.5 0 0 84.77 -128.5 0 0 72.26 145.63 0 0 89.32 -257.57 0 0 -401.1 257.57 0 0 89.32 -145.63 0zm557.63 311.78l-79.96 -147.92 -11.99 0 0 147.92 -111.94 0 0 -401.1 176.47 0c32.36,0 59.78,5.59 82.24,16.78 22.46,11.19 39.41,26.55 50.83,46.08 11.42,19.54 17.13,41.44 17.13,65.71 0,27.31 -7.52,51.3 -22.56,71.97 -15.04,20.67 -37.03,35.37 -65.96,44.09l90.81 156.46 -125.07 0zm-91.95 -224.16l55.4 0c15.23,0 26.65,-3.6 34.27,-10.81 7.61,-7.2 11.42,-17.64 11.42,-31.29 0,-12.9 -3.91,-23.04 -11.71,-30.44 -7.81,-7.4 -19.13,-11.09 -33.98,-11.09l-55.4 0 0 83.63zm810.06 -176.94l-138.78 401.1 -143.35 0 -139.35 -401.1 119.93 0 91.38 289.59 90.8 -289.59 119.36 0zm299.49 0l0 401.1 -111.94 0 0 -401.1 111.94 0zm202.97 199.7c0,-39.45 8.28,-74.63 24.84,-105.54 16.56,-30.91 40.07,-55 70.53,-72.25 30.46,-17.26 65.48,-25.89 105.08,-25.89 50.26,0 92.52,13.37 126.79,40.11 34.26,26.74 56.35,63.06 66.24,108.95l-120.5 0c-7.24,-15.17 -17.23,-26.74 -29.98,-34.7 -12.76,-7.96 -27.51,-11.95 -44.26,-11.95 -25.89,0 -46.54,9.2 -61.96,27.59 -15.42,18.39 -23.13,42.96 -23.13,73.68 0,31.1 7.71,55.85 23.13,74.24 15.42,18.4 36.07,27.59 61.96,27.59 16.75,0 31.5,-3.98 44.26,-11.95 12.76,-7.96 22.75,-19.53 29.98,-34.7l120.5 0c-9.9,45.89 -31.98,82.21 -66.24,108.95 -34.27,26.74 -76.53,40.11 -126.79,40.11 -39.6,0 -74.62,-8.63 -105.08,-25.89 -30.46,-17.26 -53.97,-41.35 -70.53,-72.26 -16.56,-30.91 -24.84,-66.28 -24.84,-106.11zm711.26 -110.38l0 65.43 128.5 0 0 84.77 -128.5 0 0 72.26 145.63 0 0 89.32 -257.57 0 0 -401.1 257.57 0 0 89.32 -145.63 0zm505.66 315.76c-46.83,0 -85.29,-11.09 -115.36,-33.28 -30.08,-22.19 -46.26,-53.95 -48.55,-95.3l119.36 0c1.14,14.04 5.33,24.28 12.56,30.72 7.24,6.45 16.56,9.67 27.99,9.67 10.28,0 18.75,-2.56 25.41,-7.68 6.66,-5.12 9.99,-12.23 9.99,-21.33 0,-11.76 -5.52,-20.86 -16.56,-27.31 -11.04,-6.45 -28.93,-13.65 -53.69,-21.62 -26.27,-8.72 -47.5,-17.17 -63.68,-25.32 -16.18,-8.15 -30.27,-20.1 -42.26,-35.84 -11.99,-15.74 -17.99,-36.32 -17.99,-61.73 0,-25.79 6.47,-47.89 19.42,-66.28 12.95,-18.4 30.84,-32.33 53.69,-41.82 22.84,-9.48 48.74,-14.22 77.67,-14.22 46.83,0 84.24,10.91 112.22,32.72 27.98,21.81 42.93,52.44 44.83,91.88l-121.65 0c-0.38,-12.14 -4.09,-21.24 -11.14,-27.31 -7.04,-6.07 -16.08,-9.11 -27.13,-9.11 -8.38,0 -15.23,2.47 -20.56,7.4 -5.33,4.93 -8,11.95 -8,21.05 0,7.59 2.95,14.13 8.85,19.63 5.9,5.5 13.23,10.24 21.98,14.22 8.76,3.98 21.7,9.01 38.84,15.08 25.51,8.72 46.54,17.35 63.11,25.89 16.56,8.53 30.84,20.48 42.83,35.84 11.99,15.36 17.99,34.8 17.99,58.31 0,23.89 -6,45.33 -17.99,64.29 -11.99,18.96 -29.31,33.94 -51.97,44.94 -22.66,11 -49.4,16.5 -80.24,16.5z"/>
   <path id="1" class="fil5" d="M1586.22 6142.11l-138.78 401.1 -143.35 0 -139.35 -401.1 119.93 0 91.38 289.59 90.81 -289.59 119.36 0zm391.43 401.1l-79.95 -147.92 -11.99 0 0 147.92 -111.94 0 0 -401.1 176.47 0c32.36,0 59.78,5.59 82.24,16.78 22.46,11.19 39.4,26.55 50.83,46.08 11.42,19.54 17.13,41.44 17.13,65.71 0,27.31 -7.52,51.3 -22.56,71.97 -15.04,20.67 -37.03,35.37 -65.96,44.09l90.81 156.46 -125.07 0zm-91.94 -224.16l55.4 0c15.23,0 26.65,-3.6 34.26,-10.81 7.61,-7.2 11.43,-17.64 11.43,-31.29 0,-12.9 -3.91,-23.04 -11.71,-30.44 -7.81,-7.4 -19.13,-11.09 -33.98,-11.09l-55.4 0 0 83.63zm1150.09 -176.94l0 401.1 -111.94 0 0 -221.31 -75.96 221.31 -93.66 0 -76.53 -223.02 0 223.02 -111.94 0 0 -401.1 135.35 0 101.08 260.57 98.8 -260.57 134.78 0zm326.33 0l0 232.7c0,21.62 5.04,38.31 15.13,50.07 10.09,11.76 25.41,17.64 45.97,17.64 20.56,0 36.08,-5.97 46.55,-17.92 10.47,-11.95 15.7,-28.54 15.7,-49.78l0 -232.7 111.94 0 0 232.7c0,36.79 -7.8,68.18 -23.41,94.16 -15.61,25.98 -36.84,45.51 -63.68,58.6 -26.84,13.09 -56.63,19.63 -89.38,19.63 -32.74,0 -61.96,-6.54 -87.66,-19.63 -25.7,-13.09 -45.88,-32.52 -60.54,-58.31 -14.66,-25.79 -21.99,-57.28 -21.99,-94.44l0 -232.7 111.37 0zm561.63 315.76l125.07 0 0 85.34 -237.01 0 0 -401.1 111.94 0 0 315.76zm624.44 -315.76l0 88.75 -107.37 0 0 312.35 -111.94 0 0 -312.35 -106.22 0 0 -88.75 325.53 0zm306.34 0l0 401.1 -111.94 0 0 -401.1 111.94 0zm368.59 405.09c-46.83,0 -85.29,-11.09 -115.36,-33.28 -30.08,-22.19 -46.26,-53.95 -48.54,-95.3l119.36 0c1.14,14.04 5.33,24.28 12.57,30.72 7.23,6.45 16.56,9.67 27.98,9.67 10.28,0 18.75,-2.56 25.41,-7.68 6.66,-5.12 9.99,-12.23 9.99,-21.33 0,-11.76 -5.52,-20.86 -16.56,-27.31 -11.04,-6.45 -28.94,-13.65 -53.69,-21.62 -26.27,-8.72 -47.5,-17.17 -63.68,-25.32 -16.18,-8.15 -30.27,-20.1 -42.26,-35.84 -11.99,-15.74 -17.99,-36.32 -17.99,-61.73 0,-25.79 6.47,-47.89 19.42,-66.28 12.94,-18.4 30.84,-32.33 53.68,-41.82 22.85,-9.48 48.74,-14.22 77.67,-14.22 46.83,0 84.24,10.91 112.22,32.72 27.98,21.81 42.93,52.44 44.83,91.88l-121.65 0c-0.38,-12.14 -4.09,-21.24 -11.14,-27.31 -7.04,-6.07 -16.09,-9.11 -27.13,-9.11 -8.37,0 -15.23,2.47 -20.56,7.4 -5.33,4.93 -8,11.95 -8,21.05 0,7.59 2.95,14.13 8.85,19.63 5.9,5.5 13.23,10.24 21.99,14.22 8.76,3.98 21.7,9.01 38.83,15.08 25.51,8.72 46.54,17.35 63.11,25.89 16.56,8.53 30.84,20.48 42.83,35.84 11.99,15.36 17.99,34.8 17.99,58.31 0,23.89 -6,45.33 -17.99,64.29 -11.99,18.96 -29.32,33.94 -51.97,44.94 -22.65,11 -49.4,16.5 -80.24,16.5zm466.82 -315.76l0 65.43 128.5 0 0 84.77 -128.5 0 0 72.26 145.63 0 0 89.32 -257.57 0 0 -401.1 257.57 0 0 89.32 -145.63 0zm557.63 311.78l-79.96 -147.92 -11.99 0 0 147.92 -111.94 0 0 -401.1 176.47 0c32.36,0 59.78,5.59 82.24,16.78 22.46,11.19 39.41,26.55 50.83,46.08 11.42,19.54 17.13,41.44 17.13,65.71 0,27.31 -7.52,51.3 -22.56,71.97 -15.04,20.67 -37.03,35.37 -65.96,44.09l90.81 156.46 -125.07 0zm-91.95 -224.16l55.4 0c15.23,0 26.65,-3.6 34.27,-10.81 7.61,-7.2 11.42,-17.64 11.42,-31.29 0,-12.9 -3.91,-23.04 -11.71,-30.44 -7.81,-7.4 -19.13,-11.09 -33.98,-11.09l-55.4 0 0 83.63zm810.06 -176.94l-138.78 401.1 -143.35 0 -139.35 -401.1 119.93 0 91.38 289.59 90.8 -289.59 119.36 0zm299.49 0l0 401.1 -111.94 0 0 -401.1 111.94 0zm202.97 199.7c0,-39.45 8.28,-74.63 24.84,-105.54 16.56,-30.91 40.07,-55 70.53,-72.25 30.46,-17.26 65.48,-25.89 105.08,-25.89 50.26,0 92.52,13.37 126.79,40.11 34.26,26.74 56.35,63.06 66.24,108.95l-120.5 0c-7.24,-15.17 -17.23,-26.74 -29.98,-34.7 -12.76,-7.96 -27.51,-11.95 -44.26,-11.95 -25.89,0 -46.54,9.2 -61.96,27.59 -15.42,18.39 -23.13,42.96 -23.13,73.68 0,31.1 7.71,55.85 23.13,74.24 15.42,18.4 36.07,27.59 61.96,27.59 16.75,0 31.5,-3.98 44.26,-11.95 12.76,-7.96 22.75,-19.53 29.98,-34.7l120.5 0c-9.9,45.89 -31.98,82.21 -66.24,108.95 -34.27,26.74 -76.53,40.11 -126.79,40.11 -39.6,0 -74.62,-8.63 -105.08,-25.89 -30.46,-17.26 -53.97,-41.35 -70.53,-72.26 -16.56,-30.91 -24.84,-66.28 -24.84,-106.11zm711.26 -110.38l0 65.43 128.5 0 0 84.77 -128.5 0 0 72.26 145.63 0 0 89.32 -257.57 0 0 -401.1 257.57 0 0 89.32 -145.63 0zm505.66 315.76c-46.83,0 -85.29,-11.09 -115.36,-33.28 -30.08,-22.19 -46.26,-53.95 -48.55,-95.3l119.36 0c1.14,14.04 5.33,24.28 12.56,30.72 7.24,6.45 16.56,9.67 27.99,9.67 10.28,0 18.75,-2.56 25.41,-7.68 6.66,-5.12 9.99,-12.23 9.99,-21.33 0,-11.76 -5.52,-20.86 -16.56,-27.31 -11.04,-6.45 -28.93,-13.65 -53.69,-21.62 -26.27,-8.72 -47.5,-17.17 -63.68,-25.32 -16.18,-8.15 -30.27,-20.1 -42.26,-35.84 -11.99,-15.74 -17.99,-36.32 -17.99,-61.73 0,-25.79 6.47,-47.89 19.42,-66.28 12.95,-18.4 30.84,-32.33 53.69,-41.82 22.84,-9.48 48.74,-14.22 77.67,-14.22 46.83,0 84.24,10.91 112.22,32.72 27.98,21.81 42.93,52.44 44.83,91.88l-121.65 0c-0.38,-12.14 -4.09,-21.24 -11.14,-27.31 -7.04,-6.07 -16.08,-9.11 -27.13,-9.11 -8.38,0 -15.23,2.47 -20.56,7.4 -5.33,4.93 -8,11.95 -8,21.05 0,7.59 2.95,14.13 8.85,19.63 5.9,5.5 13.23,10.24 21.98,14.22 8.76,3.98 21.7,9.01 38.84,15.08 25.51,8.72 46.54,17.35 63.11,25.89 16.56,8.53 30.84,20.48 42.83,35.84 11.99,15.36 17.99,34.8 17.99,58.31 0,23.89 -6,45.33 -17.99,64.29 -11.99,18.96 -29.31,33.94 -51.97,44.94 -22.66,11 -49.4,16.5 -80.24,16.5z"/>
  </g>
  <polygon class="fil6" points="1326.72,6697.81 1326.72,6724.23 1361.92,6724.23 1361.92,6740.99 1326.72,6740.99 1326.72,6768.93 1366.42,6768.93 1366.42,6786.14 1305.74,6786.14 1305.74,6680.59 1366.42,6680.59 1366.42,6697.81 "/>
  <polygon id="1" class="fil6" points="1583.55,6786.14 1560.93,6750.65 1540.41,6786.14 1516.74,6786.14 1549.7,6732.99 1516.29,6680.74 1540.41,6680.74 1563.03,6716.08 1583.4,6680.74 1607.07,6680.74 1574.27,6733.74 1607.67,6786.14 "/>
  <path id="2" class="fil6" d="M1835.44 6713.36c0,5.64 -1.32,10.92 -3.97,15.85 -2.65,4.93 -6.79,8.91 -12.43,11.93 -5.65,3.02 -12.76,4.53 -21.35,4.53l-17.52 0 0 40.46 -20.98 0 0 -105.39 38.5 0c8.09,0 14.98,1.41 20.67,4.23 5.7,2.82 9.96,6.69 12.81,11.63 2.85,4.93 4.27,10.52 4.27,16.76zm-38.65 15.25c5.8,0 10.09,-1.33 12.88,-4 2.8,-2.67 4.2,-6.42 4.2,-11.25 0,-10.27 -5.7,-15.4 -17.08,-15.4l-16.63 0 0 30.65 16.63 0z"/>
  <polygon id="3" class="fil6" points="2006.74,6697.81 2006.74,6724.23 2041.95,6724.23 2041.95,6740.99 2006.74,6740.99 2006.74,6768.93 2046.44,6768.93 2046.44,6786.14 1985.77,6786.14 1985.77,6680.59 2046.44,6680.59 2046.44,6697.81 "/>
  <path id="4" class="fil6" d="M2254.89 6786.14l-23.07 -41.07 -9.89 0 0 41.07 -20.98 0 0 -105.39 39.26 0c8.09,0 14.98,1.44 20.67,4.3 5.69,2.87 9.96,6.74 12.81,11.63 2.85,4.88 4.27,10.35 4.27,16.39 0,6.94 -2,13.21 -5.99,18.8 -4,5.59 -9.94,9.44 -17.83,11.55l25.02 42.73 -24.27 0zm-32.96 -56.93l17.53 0c5.69,0 9.94,-1.38 12.74,-4.15 2.8,-2.77 4.19,-6.62 4.19,-11.55 0,-4.83 -1.4,-8.58 -4.19,-11.25 -2.8,-2.67 -7.04,-4 -12.74,-4l-17.53 0 0 30.95z"/>
  <polygon id="5" class="fil6" points="2503.64,6680.74 2503.64,6697.81 2475.78,6697.81 2475.78,6786.14 2454.8,6786.14 2454.8,6697.81 2426.94,6697.81 2426.94,6680.74 "/>
  <path id="6" class="fil6" d="M2901.81 6713.36c0,5.64 -1.32,10.92 -3.97,15.85 -2.65,4.93 -6.79,8.91 -12.43,11.93 -5.65,3.02 -12.76,4.53 -21.35,4.53l-17.53 0 0 40.46 -20.98 0 0 -105.39 38.5 0c8.09,0 14.98,1.41 20.67,4.23 5.7,2.82 9.96,6.69 12.81,11.63 2.85,4.93 4.27,10.52 4.27,16.76zm-38.65 15.25c5.8,0 10.09,-1.33 12.88,-4 2.8,-2.67 4.2,-6.42 4.2,-11.25 0,-10.27 -5.7,-15.4 -17.08,-15.4l-16.63 0 0 30.65 16.63 0z"/>
  <polygon id="7" class="fil6" points="3073.11,6769.38 3107.57,6769.38 3107.57,6786.14 3052.14,6786.14 3052.14,6680.74 3073.11,6680.74 "/>
  <path id="8" class="fil6" d="M3320.52 6766.06l-41.65 0 -6.89 20.08 -22.02 0 37.61 -105.54 24.42 0 37.6 105.54 -22.17 0 -6.89 -20.08zm-5.69 -16.91l-15.13 -44.09 -15.13 44.09 30.26 0z"/>
  <polygon id="9" class="fil6" points="3588.59,6786.14 3567.61,6786.14 3520.13,6713.81 3520.13,6786.14 3499.15,6786.14 3499.15,6680.59 3520.13,6680.59 3567.61,6753.07 3567.61,6680.59 3588.59,6680.59 "/>
  <polygon id="10" class="fil6" points="3834.19,6786.14 3813.22,6786.14 3765.73,6713.81 3765.73,6786.14 3744.76,6786.14 3744.76,6680.59 3765.73,6680.59 3813.22,6753.07 3813.22,6680.59 3834.19,6680.59 "/>
  <polygon id="11" class="fil6" points="4011.33,6680.74 4011.33,6786.14 3990.36,6786.14 3990.36,6680.74 "/>
  <polygon id="12" class="fil6" points="4256.94,6786.14 4235.96,6786.14 4188.48,6713.81 4188.48,6786.14 4167.5,6786.14 4167.5,6680.59 4188.48,6680.59 4235.96,6753.07 4235.96,6680.59 4256.94,6680.59 "/>
  <path id="13" class="fil6" d="M4485.91 6712.45c-2.39,-4.43 -5.69,-7.8 -9.89,-10.11 -4.19,-2.31 -9.09,-3.47 -14.68,-3.47 -6.2,0 -11.69,1.41 -16.48,4.22 -4.8,2.82 -8.54,6.85 -11.24,12.08 -2.7,5.23 -4.05,11.27 -4.05,18.12 0,7.05 1.37,13.19 4.12,18.42 2.74,5.23 6.57,9.26 11.46,12.08 4.89,2.82 10.59,4.23 17.08,4.23 7.99,0 14.53,-2.14 19.63,-6.42 5.09,-4.28 8.44,-10.24 10.04,-17.89l-35.96 0 0 -16.16 56.63 0 0 18.42c-1.4,7.35 -4.39,14.15 -8.99,20.39 -4.59,6.24 -10.51,11.25 -17.75,15.02 -7.24,3.78 -15.36,5.66 -24.35,5.66 -10.08,0 -19.2,-2.29 -27.34,-6.87 -8.14,-4.58 -14.53,-10.94 -19.18,-19.1 -4.64,-8.15 -6.97,-17.42 -6.97,-27.78 0,-10.37 2.33,-19.65 6.97,-27.86 4.65,-8.2 11.04,-14.6 19.18,-19.18 8.14,-4.58 17.2,-6.87 27.19,-6.87 11.78,0 22.02,2.89 30.71,8.68 8.69,5.79 14.68,13.92 17.98,24.39l-24.12 0z"/>
  <path id="14" class="fil6" d="M4870.9 6787.19c-7.29,0 -13.85,-1.26 -19.7,-3.77 -5.84,-2.52 -10.46,-6.14 -13.86,-10.87 -3.39,-4.73 -5.14,-10.31 -5.24,-16.76l22.47 0c0.3,4.33 1.82,7.75 4.57,10.27 2.75,2.52 6.52,3.78 11.31,3.78 4.89,0 8.74,-1.18 11.54,-3.55 2.8,-2.37 4.19,-5.46 4.19,-9.29 0,-3.12 -0.95,-5.69 -2.85,-7.7 -1.89,-2.01 -4.27,-3.6 -7.11,-4.76 -2.85,-1.16 -6.77,-2.44 -11.76,-3.85 -6.8,-2.01 -12.31,-4 -16.56,-5.96 -4.24,-1.96 -7.89,-4.93 -10.94,-8.91 -3.04,-3.98 -4.57,-9.28 -4.57,-15.93 0,-6.24 1.55,-11.68 4.65,-16.31 3.09,-4.63 7.44,-8.18 13.03,-10.65 5.59,-2.46 11.98,-3.7 19.17,-3.7 10.79,0 19.55,2.64 26.3,7.93 6.74,5.29 10.46,12.66 11.16,22.12l-23.07 0c-0.2,-3.63 -1.72,-6.62 -4.57,-8.98 -2.85,-2.37 -6.62,-3.55 -11.31,-3.55 -4.09,0 -7.37,1.06 -9.81,3.17 -2.45,2.11 -3.67,5.19 -3.67,9.21 0,2.82 0.93,5.16 2.78,7.02 1.85,1.86 4.14,3.37 6.89,4.53 2.74,1.16 6.62,2.49 11.61,4 6.79,2.01 12.33,4.02 16.63,6.04 4.3,2.01 7.99,5.03 11.09,9.06 3.1,4.03 4.65,9.31 4.65,15.85 0,5.64 -1.45,10.87 -4.34,15.7 -2.9,4.83 -7.14,8.68 -12.74,11.55 -5.59,2.87 -12.23,4.3 -19.93,4.3z"/>
  <polygon id="15" class="fil6" points="5082.5,6697.81 5082.5,6724.23 5117.7,6724.23 5117.7,6740.99 5082.5,6740.99 5082.5,6768.93 5122.2,6768.93 5122.2,6786.14 5061.52,6786.14 5061.52,6680.59 5122.2,6680.59 5122.2,6697.81 "/>
  <path id="16" class="fil6" d="M5340.83 6766.06l-41.65 0 -6.89 20.08 -22.02 0 37.6 -105.54 24.42 0 37.6 105.54 -22.17 0 -6.89 -20.08zm-5.69 -16.91l-15.13 -44.09 -15.13 44.09 30.27 0z"/>
  <polygon id="17" class="fil6" points="5633.48,6680.74 5633.48,6786.14 5612.5,6786.14 5612.5,6717.59 5584.49,6786.14 5568.61,6786.14 5540.44,6717.59 5540.44,6786.14 5519.47,6786.14 5519.47,6680.74 5543.29,6680.74 5576.55,6759.11 5609.81,6680.74 "/>
  <polygon id="18" class="fil6" points="5810.61,6769.38 5845.07,6769.38 5845.07,6786.14 5789.64,6786.14 5789.64,6680.74 5810.61,6680.74 "/>
  <polygon id="19" class="fil6" points="6014.87,6697.81 6014.87,6724.23 6050.07,6724.23 6050.07,6740.99 6014.87,6740.99 6014.87,6768.93 6054.57,6768.93 6054.57,6786.14 5993.9,6786.14 5993.9,6680.59 6054.57,6680.59 6054.57,6697.81 "/>
  <path id="20" class="fil6" d="M6245.19 6787.19c-7.29,0 -13.86,-1.26 -19.7,-3.77 -5.84,-2.52 -10.46,-6.14 -13.86,-10.87 -3.39,-4.73 -5.14,-10.31 -5.24,-16.76l22.47 0c0.3,4.33 1.82,7.75 4.57,10.27 2.75,2.52 6.52,3.78 11.31,3.78 4.89,0 8.74,-1.18 11.53,-3.55 2.8,-2.37 4.2,-5.46 4.2,-9.29 0,-3.12 -0.95,-5.69 -2.85,-7.7 -1.89,-2.01 -4.27,-3.6 -7.11,-4.76 -2.85,-1.16 -6.77,-2.44 -11.76,-3.85 -6.8,-2.01 -12.31,-4 -16.56,-5.96 -4.25,-1.96 -7.89,-4.93 -10.94,-8.91 -3.04,-3.98 -4.57,-9.28 -4.57,-15.93 0,-6.24 1.55,-11.68 4.64,-16.31 3.09,-4.63 7.44,-8.18 13.03,-10.65 5.59,-2.46 11.98,-3.7 19.18,-3.7 10.79,0 19.55,2.64 26.29,7.93 6.74,5.29 10.46,12.66 11.16,22.12l-23.07 0c-0.2,-3.63 -1.72,-6.62 -4.57,-8.98 -2.84,-2.37 -6.61,-3.55 -11.31,-3.55 -4.1,0 -7.37,1.06 -9.81,3.17 -2.45,2.11 -3.67,5.19 -3.67,9.21 0,2.82 0.93,5.16 2.77,7.02 1.85,1.86 4.15,3.37 6.89,4.53 2.74,1.16 6.61,2.49 11.61,4 6.8,2.01 12.34,4.02 16.63,6.04 4.3,2.01 7.99,5.03 11.09,9.06 3.1,4.03 4.65,9.31 4.65,15.85 0,5.64 -1.45,10.87 -4.35,15.7 -2.9,4.83 -7.14,8.68 -12.73,11.55 -5.59,2.87 -12.24,4.3 -19.93,4.3z"/>
  <path id="21" class="fil6" d="M6471.92 6787.19c-7.29,0 -13.85,-1.26 -19.7,-3.77 -5.84,-2.52 -10.46,-6.14 -13.86,-10.87 -3.39,-4.73 -5.14,-10.31 -5.24,-16.76l22.47 0c0.3,4.33 1.82,7.75 4.56,10.27 2.75,2.52 6.52,3.78 11.31,3.78 4.89,0 8.74,-1.18 11.54,-3.55 2.8,-2.37 4.19,-5.46 4.19,-9.29 0,-3.12 -0.95,-5.69 -2.85,-7.7 -1.89,-2.01 -4.27,-3.6 -7.11,-4.76 -2.85,-1.16 -6.77,-2.44 -11.76,-3.85 -6.8,-2.01 -12.31,-4 -16.56,-5.96 -4.25,-1.96 -7.89,-4.93 -10.94,-8.91 -3.04,-3.98 -4.57,-9.28 -4.57,-15.93 0,-6.24 1.55,-11.68 4.65,-16.31 3.09,-4.63 7.44,-8.18 13.03,-10.65 5.59,-2.46 11.98,-3.7 19.17,-3.7 10.79,0 19.55,2.64 26.3,7.93 6.74,5.29 10.46,12.66 11.16,22.12l-23.07 0c-0.2,-3.63 -1.72,-6.62 -4.57,-8.98 -2.85,-2.37 -6.62,-3.55 -11.31,-3.55 -4.1,0 -7.37,1.06 -9.81,3.17 -2.45,2.11 -3.67,5.19 -3.67,9.21 0,2.82 0.93,5.16 2.78,7.02 1.85,1.86 4.14,3.37 6.89,4.53 2.74,1.16 6.62,2.49 11.61,4 6.79,2.01 12.33,4.02 16.63,6.04 4.3,2.01 7.99,5.03 11.09,9.06 3.1,4.03 4.65,9.31 4.65,15.85 0,5.64 -1.45,10.87 -4.34,15.7 -2.9,4.83 -7.14,8.68 -12.74,11.55 -5.59,2.87 -12.24,4.3 -19.93,4.3z"/>
  <polygon id="22" class="fil6" points="6854.66,6697.81 6854.66,6724.23 6889.86,6724.23 6889.86,6740.99 6854.66,6740.99 6854.66,6768.93 6894.36,6768.93 6894.36,6786.14 6833.69,6786.14 6833.69,6680.59 6894.36,6680.59 6894.36,6697.81 "/>
  <polygon id="23" class="fil6" points="7111.5,6786.14 7088.87,6750.65 7068.35,6786.14 7044.68,6786.14 7077.64,6732.99 7044.23,6680.74 7068.35,6680.74 7090.97,6716.08 7111.35,6680.74 7135.02,6680.74 7102.21,6733.74 7135.62,6786.14 "/>
  <polygon id="24" class="fil6" points="7308.11,6697.81 7308.11,6724.23 7343.31,6724.23 7343.31,6740.99 7308.11,6740.99 7308.11,6768.93 7347.81,6768.93 7347.81,6786.14 7287.13,6786.14 7287.13,6680.59 7347.81,6680.59 7347.81,6697.81 "/>
  <path id="25" class="fil6" d="M7497.23 6733.29c0,-10.37 2.32,-19.65 6.97,-27.86 4.65,-8.2 10.98,-14.6 19.02,-19.18 8.04,-4.58 17.06,-6.87 27.04,-6.87 11.68,0 21.92,3.02 30.71,9.06 8.79,6.04 14.93,14.39 18.43,25.07l-24.11 0c-2.4,-5.04 -5.77,-8.81 -10.11,-11.33 -4.34,-2.52 -9.36,-3.78 -15.06,-3.78 -6.09,0 -11.51,1.44 -16.26,4.31 -4.74,2.87 -8.44,6.92 -11.09,12.15 -2.65,5.23 -3.97,11.37 -3.97,18.42 0,6.94 1.32,13.06 3.97,18.35 2.65,5.28 6.34,9.36 11.09,12.23 4.74,2.87 10.16,4.3 16.26,4.3 5.69,0 10.71,-1.28 15.06,-3.85 4.34,-2.57 7.72,-6.37 10.11,-11.4l24.11 0c-3.49,10.77 -9.61,19.15 -18.35,25.14 -8.74,5.99 -19,8.98 -30.78,8.98 -9.99,0 -19,-2.29 -27.04,-6.87 -8.04,-4.58 -14.38,-10.94 -19.02,-19.1 -4.65,-8.15 -6.97,-17.42 -6.97,-27.78z"/>
  <path id="26" class="fil6" d="M7773.55 6680.74l0 65.23c0,7.15 1.85,12.61 5.54,16.39 3.69,3.77 8.89,5.66 15.58,5.66 6.79,0 12.04,-1.89 15.73,-5.66 3.7,-3.78 5.54,-9.24 5.54,-16.39l0 -65.23 21.13 0 0 65.08c0,8.96 -1.92,16.54 -5.77,22.72 -3.85,6.19 -8.99,10.85 -15.43,13.97 -6.44,3.12 -13.61,4.68 -21.5,4.68 -7.79,0 -14.85,-1.56 -21.2,-4.68 -6.35,-3.12 -11.36,-7.78 -15.06,-13.97 -3.7,-6.19 -5.54,-13.76 -5.54,-22.72l0 -65.08 20.97 0z"/>
  <polygon id="27" class="fil6" points="8063.94,6680.74 8063.94,6697.81 8036.08,6697.81 8036.08,6786.14 8015.1,6786.14 8015.1,6697.81 7987.24,6697.81 7987.24,6680.74 "/>
  <polygon id="28" class="fil6" points="8235.69,6680.74 8235.69,6786.14 8214.71,6786.14 8214.71,6680.74 "/>
  <path id="29" class="fil6" d="M8440.39 6787.19c-9.78,0 -18.77,-2.31 -26.96,-6.94 -8.19,-4.63 -14.68,-11.05 -19.48,-19.25 -4.79,-8.2 -7.19,-17.49 -7.19,-27.86 0,-10.26 2.4,-19.5 7.19,-27.7 4.8,-8.2 11.29,-14.62 19.48,-19.25 8.19,-4.63 17.18,-6.94 26.96,-6.94 9.89,0 18.91,2.31 27.04,6.94 8.14,4.63 14.58,11.05 19.33,19.25 4.74,8.2 7.11,17.44 7.11,27.7 0,10.37 -2.37,19.66 -7.11,27.86 -4.74,8.2 -11.21,14.62 -19.4,19.25 -8.19,4.63 -17.18,6.94 -26.97,6.94zm0 -18.87c6.3,0 11.84,-1.43 16.63,-4.3 4.8,-2.87 8.54,-6.97 11.24,-12.3 2.69,-5.33 4.04,-11.53 4.04,-18.57 0,-7.04 -1.35,-13.21 -4.04,-18.5 -2.7,-5.28 -6.44,-9.33 -11.24,-12.15 -4.79,-2.82 -10.33,-4.23 -16.63,-4.23 -6.29,0 -11.86,1.41 -16.7,4.23 -4.85,2.82 -8.61,6.87 -11.31,12.15 -2.7,5.29 -4.04,11.45 -4.04,18.5 0,7.05 1.35,13.24 4.04,18.57 2.7,5.33 6.46,9.44 11.31,12.3 4.84,2.87 10.41,4.3 16.7,4.3z"/>
  <polygon id="30" class="fil6" points="8734.38,6786.14 8713.41,6786.14 8665.92,6713.81 8665.92,6786.14 8644.94,6786.14 8644.94,6680.59 8665.92,6680.59 8713.41,6753.07 8713.41,6680.59 8734.38,6680.59 "/>
 </g>
</svg>
