<svg width="168" height="393" viewBox="0 0 168 393" fill="none" xmlns="http://www.w3.org/2000/svg">
<mask id="mask0_219_829" style="mask-type:luminance" maskUnits="userSpaceOnUse" x="0" y="0" width="183" height="393">
<path d="M116.985 346.448C118.165 347.97 119.481 349.368 120.924 350.649C121.211 353.065 121.624 355.355 122.151 357.527C119.88 354.368 118.204 350.625 116.985 346.448ZM115.378 338.606C116.89 339.996 118.566 341.245 120.37 342.384C120.406 345.068 120.572 347.623 120.845 350.069C119.34 348.7 117.978 347.199 116.764 345.564C116.175 343.365 115.716 341.042 115.378 338.606ZM111.067 333.866C112.244 335.442 113.567 336.894 115.001 338.252C115.303 340.579 115.716 342.803 116.244 344.916C113.993 341.707 112.297 337.991 111.067 333.866ZM114.713 330.5C116.53 331.722 118.488 332.834 120.612 333.813C120.429 336.617 120.328 339.34 120.35 341.943C118.52 340.766 116.827 339.471 115.3 338.035C114.988 335.632 114.792 333.12 114.713 330.5ZM109.45 326.242C110.954 327.697 112.606 329.037 114.396 330.267C114.46 332.841 114.635 335.313 114.922 337.68C113.428 336.231 112.058 334.676 110.849 332.986C110.263 330.843 109.8 328.592 109.45 326.242ZM105.153 321.302C106.331 322.927 107.647 324.446 109.081 325.873C109.393 328.116 109.813 330.266 110.34 332.322C108.119 329.057 106.388 325.38 105.153 321.302ZM114.807 322.194C116.881 323.262 119.1 324.224 121.48 325.069C121.116 327.948 120.83 330.753 120.644 333.462C118.502 332.456 116.521 331.322 114.693 330.067C114.629 327.537 114.666 324.912 114.807 322.194ZM108.734 318.412C110.524 319.717 112.438 320.933 114.523 322.026C114.375 324.719 114.325 327.323 114.376 329.834C112.563 328.562 110.888 327.182 109.373 325.678C109.048 323.352 108.837 320.928 108.734 318.412ZM103.525 313.898C105.02 315.417 106.648 316.844 108.424 318.164C108.51 320.636 108.703 323.018 109.003 325.307C107.512 323.785 106.145 322.167 104.938 320.427C104.356 318.34 103.884 316.163 103.525 313.898ZM99.3053 308.847C100.469 310.487 101.753 312.043 103.162 313.513C103.483 315.673 103.914 317.745 104.437 319.744C102.266 316.46 100.546 312.831 99.3053 308.847ZM115.516 313.791C117.804 314.754 120.226 315.629 122.795 316.406C122.296 319.268 121.87 322.062 121.521 324.783C119.124 323.92 116.902 322.929 114.818 321.838C114.96 319.237 115.196 316.551 115.516 313.791ZM108.748 310.444C110.774 311.62 112.936 312.706 115.251 313.692C114.928 316.425 114.684 319.09 114.534 321.669C112.437 320.554 110.509 319.316 108.714 317.984C108.627 315.554 108.639 313.04 108.748 310.444ZM102.758 306.336C104.527 307.732 106.415 309.051 108.471 310.261C108.353 312.833 108.331 315.325 108.404 317.735C106.604 316.374 104.955 314.906 103.448 313.337C103.113 311.086 102.882 308.754 102.758 306.336ZM97.6033 301.572C99.0865 303.157 100.695 304.663 102.453 306.074C102.561 308.447 102.775 310.737 103.085 312.95C101.594 311.358 100.237 309.672 99.0296 307.883C98.4467 305.858 97.9731 303.753 97.6033 301.572ZM93.5269 296.517C94.6546 298.139 95.8935 299.691 97.2464 301.172C97.5789 303.246 98.0157 305.245 98.5363 307.182C96.4342 303.923 94.7718 300.359 93.5269 296.517ZM116.688 305.58C119.131 306.488 121.702 307.322 124.408 308.075C123.823 310.824 123.307 313.51 122.844 316.147C120.265 315.363 117.832 314.481 115.542 313.506C115.847 310.932 116.239 308.28 116.688 305.58ZM109.352 302.445C111.579 303.54 113.94 304.558 116.438 305.496C115.984 308.196 115.602 310.837 115.292 313.413C112.959 312.408 110.796 311.291 108.759 310.093C108.871 307.615 109.071 305.062 109.352 302.445ZM102.69 298.699C104.685 299.99 106.819 301.2 109.093 302.33C108.809 304.922 108.601 307.452 108.481 309.909C106.413 308.676 104.512 307.335 102.737 305.912C102.629 303.58 102.612 301.176 102.69 298.699ZM96.7828 294.275C98.5283 295.759 100.395 297.175 102.419 298.501C102.331 300.955 102.338 303.336 102.433 305.65C100.651 304.197 99.021 302.648 97.5265 301.014C97.1789 298.839 96.9304 296.593 96.7828 294.275ZM91.6853 289.268C93.1541 290.917 94.7475 292.498 96.4842 293.998C96.616 296.272 96.8466 298.475 97.1695 300.612C95.6833 298.947 94.3313 297.199 93.125 295.36C92.5342 293.403 92.0672 291.363 91.6853 289.268ZM87.7554 284.229C88.8426 285.827 90.0402 287.365 91.3333 288.85C91.6764 290.839 92.1201 292.764 92.6375 294.638C90.6088 291.413 88.9963 287.932 87.7554 284.229ZM118.169 297.745C120.719 298.638 123.389 299.469 126.182 300.236C125.553 302.818 124.994 305.34 124.462 307.837C121.749 307.078 119.173 306.238 116.726 305.323C117.141 302.853 117.64 300.311 118.169 297.745ZM110.395 294.683C112.78 295.744 115.293 296.738 117.931 297.669C117.398 300.236 116.906 302.771 116.486 305.243C113.979 304.297 111.609 303.271 109.378 302.164C109.645 299.729 109.991 297.228 110.395 294.683ZM103.187 291.09C105.375 292.322 107.7 293.485 110.151 294.584C109.744 297.123 109.391 299.619 109.119 302.05C106.831 300.903 104.703 299.663 102.7 298.352C102.783 295.992 102.944 293.571 103.187 291.09ZM96.6334 286.958C98.5957 288.361 100.701 289.693 102.934 290.961C102.687 293.417 102.519 295.815 102.428 298.154C100.393 296.804 98.514 295.365 96.7627 293.854C96.6321 291.617 96.5869 289.319 96.6334 286.958ZM90.8111 282.228C92.5311 283.799 94.3774 285.308 96.367 286.746C96.312 289.084 96.3465 291.36 96.4636 293.577C94.7035 292.034 93.0887 290.409 91.6087 288.71C91.2487 286.611 90.9832 284.449 90.8111 282.228ZM85.8311 277.059C87.2664 278.746 88.8281 280.372 90.5165 281.936C90.6726 284.113 90.921 286.23 91.2563 288.292C89.8098 286.594 88.4897 284.826 87.3067 282.984C86.7077 281.072 86.2294 279.089 85.8311 277.059ZM81.9913 271.985C83.0357 273.553 84.1934 275.068 85.4228 276.549C85.7746 278.455 86.2215 280.305 86.7412 282.113C84.7921 278.932 83.2193 275.549 81.9913 271.985ZM119.814 290.426C122.454 291.332 125.193 292.193 128.062 292.995C127.43 295.355 126.8 297.714 126.237 300.013C123.438 299.243 120.768 298.406 118.214 297.509C118.695 295.191 119.246 292.815 119.814 290.426ZM111.727 287.325C114.241 288.382 116.833 289.405 119.587 290.355C119.017 292.741 118.46 295.118 117.976 297.433C115.333 296.498 112.819 295.497 110.432 294.43C110.806 292.107 111.246 289.731 111.727 287.325ZM104.1 283.762C106.449 284.97 108.897 286.136 111.495 287.235C111.012 289.637 110.565 292.012 110.188 294.331C107.732 293.225 105.402 292.055 103.213 290.813C103.443 288.511 103.739 286.16 104.1 283.762ZM97.0212 279.727C99.1776 281.088 101.447 282.4 103.861 283.649C103.497 286.04 103.195 288.386 102.96 290.683C100.713 289.397 98.6145 288.037 96.6431 286.614C96.695 284.369 96.8176 282.076 97.0212 279.727ZM90.5774 275.223C92.5137 276.731 94.5743 278.187 96.773 279.584C96.566 281.908 96.4359 284.179 96.3767 286.402C94.3741 284.941 92.5174 283.407 90.7907 281.809C90.6371 279.666 90.5641 277.471 90.5774 275.223ZM84.8414 270.197C86.5415 271.848 88.3536 273.454 90.3153 274.996C90.293 277.222 90.3556 279.394 90.4959 281.517C88.7584 279.886 87.1587 278.188 85.6938 276.426C85.3164 274.403 85.0361 272.324 84.8414 270.197ZM80.0323 264.949C81.4227 266.643 82.9269 268.291 84.5511 269.889C84.729 271.972 84.9989 274.004 85.3455 275.99C83.961 274.29 82.6883 272.536 81.5437 270.722C80.9419 268.848 80.4464 266.919 80.0323 264.949ZM76.2361 259.79C77.2626 261.357 78.398 262.881 79.5987 264.379C79.9502 266.155 80.3455 267.909 80.8469 269.608C78.9827 266.485 77.4474 263.21 76.2361 259.79ZM121.513 283.682C124.207 284.632 127.001 285.544 129.897 286.418C129.282 288.557 128.681 290.683 128.119 292.777C125.248 291.974 122.504 291.113 119.865 290.206C120.378 288.061 120.933 285.881 121.513 283.682ZM113.208 280.493C115.792 281.57 118.491 282.605 121.298 283.599C120.715 285.801 120.153 287.986 119.638 290.135C116.88 289.181 114.288 288.154 111.772 287.092C112.207 284.925 112.69 282.723 113.208 280.493ZM105.28 276.863C107.744 278.078 110.292 279.263 112.99 280.393C112.468 282.625 111.979 284.833 111.54 287.003C108.938 285.898 106.488 284.727 104.137 283.512C104.468 281.332 104.847 279.117 105.28 276.863ZM97.8006 272.817C100.11 274.17 102.501 275.494 105.054 276.759C104.617 279.009 104.233 281.221 103.898 283.399C101.479 282.142 99.2045 280.822 97.0468 279.453C97.2393 277.28 97.4846 275.072 97.8006 272.817ZM90.8541 268.357C92.9761 269.842 95.1957 271.293 97.5675 272.69C97.2486 274.936 96.9967 277.136 96.7994 279.301C94.5883 277.887 92.5309 276.407 90.587 274.88C90.6073 272.748 90.6905 270.577 90.8541 268.357ZM84.5222 263.491C86.4301 265.102 88.4489 266.676 90.6105 268.199C90.4428 270.395 90.3529 272.543 90.3247 274.654C88.3499 273.087 86.5275 271.456 84.8207 269.777C84.6452 267.725 84.5397 265.632 84.5222 263.491ZM78.9722 258.29C80.6195 259.983 82.3736 261.641 84.264 263.252C84.2727 265.369 84.3679 267.439 84.53 269.47C82.8475 267.794 81.3014 266.061 79.8734 264.281C79.4829 262.329 79.1906 260.328 78.9722 258.29ZM74.2404 252.88C75.5971 254.593 77.0608 256.272 78.6357 257.913C78.8329 259.88 79.0844 261.822 79.4391 263.711C78.113 262.018 76.8957 260.281 75.7875 258.502C75.1829 256.667 74.6696 254.792 74.2404 252.88ZM70.4904 247.645C71.5054 249.222 72.6304 250.764 73.81 252.288C74.1705 253.985 74.5673 255.666 75.0649 257.303C73.2349 254.201 71.7089 250.98 70.4904 247.645ZM123.152 277.613C125.867 278.644 128.686 279.643 131.581 280.62C131.007 282.511 130.49 284.355 129.957 286.213C127.059 285.336 124.264 284.421 121.569 283.468C122.08 281.529 122.589 279.592 123.152 277.613ZM114.734 274.217C117.367 275.353 120.116 276.454 122.945 277.532C122.382 279.509 121.867 281.448 121.354 283.385C118.546 282.388 115.848 281.348 113.261 280.267C113.726 278.27 114.203 276.263 114.734 274.217ZM106.6 270.474C109.13 271.722 111.783 272.935 114.524 274.122C113.992 276.165 113.51 278.172 113.043 280.168C110.346 279.036 107.788 277.851 105.326 276.633C105.717 274.603 106.127 272.56 106.6 270.474ZM98.8282 266.358C101.233 267.725 103.757 269.059 106.387 270.361C105.911 272.449 105.494 274.497 105.099 276.529C102.542 275.259 100.15 273.928 97.8383 272.569C98.1271 270.525 98.4415 268.465 98.8282 266.358ZM91.4992 261.847C93.7604 263.338 96.1131 264.804 98.6091 266.229C98.2191 268.336 97.8975 270.398 97.6049 272.442C95.2284 271.037 93.0032 269.578 90.8802 268.083C91.0348 266.035 91.227 263.965 91.4992 261.847ZM84.7013 256.987C86.7795 258.591 88.951 260.169 91.2703 261.706C90.9953 263.812 90.7974 265.873 90.6378 267.91C88.4659 266.371 86.4453 264.778 84.5316 263.149C84.5231 261.131 84.5757 259.079 84.7013 256.987ZM78.5559 251.835C80.4078 253.521 82.3568 255.183 84.4467 256.804C84.3158 258.879 84.2715 260.907 84.2733 262.909C82.3514 261.259 80.5756 259.558 78.9076 257.821C78.7107 255.865 78.6045 253.864 78.5559 251.835ZM73.1151 246.425C74.7204 248.169 76.4357 249.885 78.2695 251.569C78.3081 253.557 78.3918 255.523 78.5707 257.443C76.9539 255.736 75.4631 253.986 74.0798 252.202C73.6758 250.312 73.3577 248.385 73.1151 246.425ZM68.4561 240.855C69.7918 242.607 71.2383 244.331 72.7821 246.03C73.0022 247.919 73.281 249.783 73.6493 251.609C72.3412 249.883 71.1394 248.122 70.0394 246.329C69.4327 244.533 68.9022 242.71 68.4561 240.855ZM64.7371 235.502C65.745 237.102 66.8614 238.677 68.0278 240.239C68.4015 241.876 68.8185 243.498 69.3184 245.09C67.5067 241.981 65.9682 238.787 64.7371 235.502ZM124.718 272.341C127.442 273.474 130.253 274.588 133.142 275.684C132.642 277.263 132.121 278.861 131.644 280.422C128.747 279.444 125.928 278.443 123.212 277.409C123.691 275.738 124.208 274.037 124.718 272.341ZM116.245 268.659C118.903 269.88 121.678 271.075 124.511 272.256C123.999 273.954 123.485 275.655 123.005 277.328C120.175 276.248 117.425 275.144 114.791 274.005C115.251 272.241 115.742 270.455 116.245 268.659ZM107.99 264.689C110.565 266.004 113.271 267.289 116.035 268.562C115.529 270.36 115.043 272.144 114.582 273.909C111.839 272.72 109.185 271.502 106.653 270.25C107.071 268.416 107.515 266.563 107.99 264.689ZM100.023 260.414C102.494 261.825 105.104 263.208 107.776 264.576C107.298 266.453 106.86 268.301 106.441 270.138C103.81 268.831 101.281 267.495 98.8752 266.124C99.2228 264.243 99.6023 262.341 100.023 260.414ZM92.4208 255.822C94.7638 257.333 97.2464 258.815 99.8034 260.281C99.3791 262.211 99.0074 264.107 98.6573 265.99C96.1621 264.561 93.7961 263.095 91.5369 261.6C91.7857 259.702 92.0843 257.773 92.4208 255.822ZM85.2647 250.899C87.4604 252.511 89.7738 254.099 92.1928 255.665C91.8514 257.62 91.5618 259.546 91.3096 261.449C88.9839 259.903 86.7941 258.318 84.7123 256.704C84.8343 254.802 85.0401 252.855 85.2647 250.899ZM78.6329 245.679C80.6542 247.383 82.7736 249.068 85.023 250.727C84.7938 252.679 84.6017 254.612 84.4748 256.51C82.371 254.868 80.3982 253.191 78.5382 251.483C78.5015 249.581 78.5466 247.64 78.6329 245.679ZM72.6052 240.211C74.4202 241.986 76.3326 243.744 78.3754 245.476C78.284 247.406 78.2247 249.322 78.251 251.197C76.3965 249.48 74.6676 247.729 73.0496 245.95C72.8287 244.067 72.6851 242.153 72.6052 240.211ZM67.2587 234.557C68.8411 236.374 70.5213 238.173 72.3238 239.95C72.393 241.843 72.5146 243.715 72.7163 245.554C71.1293 243.786 69.6576 241.989 68.294 240.165C67.8722 238.323 67.5274 236.453 67.2587 234.557ZM62.6668 228.823C63.9891 230.626 65.4104 232.413 66.9331 234.181C67.1778 235.993 67.4824 237.784 67.8652 239.548C66.5795 237.791 65.3878 236.01 64.2994 234.205C63.6847 232.431 63.1308 230.64 62.6668 228.823ZM58.9403 223.254C59.965 224.927 61.0667 226.588 62.2517 228.234C62.637 229.813 63.0771 231.376 63.5783 232.922C61.7632 229.762 60.1898 226.544 58.9403 223.254ZM126.069 267.882C128.786 269.112 131.568 270.333 134.452 271.538C134.018 272.87 133.617 274.175 133.202 275.492C130.311 274.395 127.501 273.279 124.776 272.144C125.202 270.728 125.619 269.317 126.069 267.882ZM117.633 263.869C120.316 265.187 123.02 266.502 125.871 267.796C125.42 269.23 124.996 270.643 124.569 272.059C121.734 270.876 118.96 269.678 116.301 268.455C116.728 266.939 117.176 265.407 117.633 263.869ZM109.351 259.616C111.963 261.013 114.646 262.4 117.432 263.771C116.974 265.308 116.519 266.842 116.091 268.358C113.324 267.082 110.618 265.793 108.042 264.475C108.452 262.873 108.902 261.244 109.351 259.616ZM101.282 255.106C103.808 256.586 106.435 258.051 109.147 259.505C108.697 261.131 108.239 262.762 107.828 264.362C105.151 262.989 102.542 261.602 100.069 260.186C100.438 258.514 100.862 256.808 101.282 255.106ZM93.4928 250.328C95.9155 251.893 98.4537 253.442 101.073 254.98C100.652 256.679 100.221 258.385 99.8494 260.053C97.2878 258.582 94.8052 257.093 92.4586 255.576C92.7617 253.85 93.1258 252.089 93.4928 250.328ZM86.0581 245.279C88.355 246.928 90.7742 248.561 93.2775 250.182C92.9089 251.939 92.5359 253.698 92.2304 255.419C89.8114 253.848 87.4838 252.259 85.2892 250.643C85.4974 248.88 85.77 247.083 86.0581 245.279ZM79.057 239.957C81.2068 241.688 83.4697 243.405 85.8346 245.109C85.5439 246.905 85.2616 248.697 85.0491 250.454C82.7989 248.789 80.6607 247.101 78.6406 245.391C78.7257 243.605 78.8746 241.788 79.057 239.957ZM72.5662 234.378C74.5494 236.185 76.6167 237.984 78.8205 239.765C78.6344 241.584 78.4751 243.391 78.3838 245.167C76.3383 243.424 74.4028 241.661 72.5881 239.874C72.5213 238.066 72.5164 236.233 72.5662 234.378ZM66.6588 228.61C68.4441 230.47 70.3072 232.324 72.3125 234.159C72.2573 235.986 72.2482 237.793 72.3047 239.574C70.4912 237.774 68.7849 235.954 67.1971 234.113C66.9514 232.301 66.7712 230.467 66.6588 228.61ZM61.4063 222.715C62.9679 224.598 64.6064 226.475 66.3801 228.336C66.4809 230.144 66.6405 231.932 66.8662 233.697C65.3126 231.874 63.856 230.033 62.5149 228.172C62.0749 226.373 61.7003 224.555 61.4063 222.715ZM56.8746 216.793C58.1919 218.655 59.5739 220.511 61.0876 222.353C61.3547 224.097 61.6898 225.821 62.0872 227.529C60.8261 225.743 59.6407 223.946 58.5671 222.13C57.9377 220.365 57.3569 218.589 56.8746 216.793ZM53.2617 211.224C54.2771 212.912 55.314 214.599 56.4822 216.274C56.8759 217.795 57.3427 219.301 57.8445 220.8C56.0646 217.647 54.512 214.458 53.2617 211.224ZM127.266 264.195C129.955 265.536 132.748 266.869 135.565 268.2C135.215 269.249 134.854 270.305 134.513 271.347C131.63 270.142 128.846 268.922 126.131 267.692C126.496 266.536 126.889 265.36 127.266 264.195ZM118.845 259.889C121.488 261.298 124.271 262.698 127.071 264.096C126.691 265.266 126.3 266.444 125.932 267.605C123.08 266.31 120.377 264.992 117.693 263.673C118.068 262.418 118.451 261.157 118.845 259.889ZM110.558 255.281C113.192 256.787 115.846 258.291 118.645 259.786C118.249 261.057 117.868 262.318 117.492 263.575C114.704 262.201 112.02 260.811 109.407 259.412C109.785 258.039 110.15 256.674 110.558 255.281ZM102.446 250.469C105.001 252.04 107.629 253.606 110.354 255.167C109.943 256.562 109.582 257.926 109.203 259.302C106.489 257.845 103.862 256.375 101.334 254.891C101.695 253.423 102.045 251.962 102.446 250.469ZM94.5642 245.443C97.0303 247.083 99.602 248.717 102.247 250.347C101.845 251.837 101.488 253.299 101.125 254.766C98.503 253.223 95.9642 251.669 93.5396 250.099C93.8614 248.558 94.1922 247.012 94.5642 245.443ZM86.9557 240.186C89.3193 241.898 91.8072 243.603 94.3599 245.305C93.9864 246.87 93.6481 248.416 93.3242 249.954C90.8165 248.326 88.3966 246.686 86.0966 245.031C86.3545 243.43 86.6349 241.818 86.9557 240.186ZM79.6917 234.702C81.9324 236.483 84.3058 238.257 86.7448 240.028C86.4225 241.655 86.1337 243.265 85.8729 244.86C83.5055 243.151 81.2337 241.428 79.0824 239.692C79.2493 238.044 79.4476 236.383 79.6917 234.702ZM72.8479 229.003C74.9432 230.846 77.1716 232.685 79.4723 234.519C79.2257 236.193 79.0183 237.849 78.8471 239.489C76.6426 237.702 74.5561 235.9 72.5737 234.086C72.6227 232.408 72.7064 230.717 72.8479 229.003ZM66.5007 223.084C68.4376 224.99 70.468 226.892 72.616 228.79C72.4701 230.495 72.3756 232.181 72.3204 233.852C70.3106 232.004 68.4283 230.14 66.6412 228.267C66.5435 226.556 66.4884 224.831 66.5007 223.084ZM60.716 217.032C62.4637 218.974 64.2911 220.914 66.2494 222.85C66.2309 224.576 66.2738 226.281 66.3612 227.972C64.5778 226.09 62.9137 224.194 61.3475 222.289C61.0792 220.552 60.858 218.802 60.716 217.032ZM55.56 210.91C57.0921 212.856 58.7034 214.8 60.4394 216.74C60.5695 218.469 60.7714 220.178 61.0211 221.875C59.4936 219.997 58.0642 218.109 56.7401 216.212C56.2841 214.457 55.8758 212.693 55.56 210.91ZM51.1299 204.864C52.4174 206.753 53.7696 208.641 55.242 210.527C55.5298 212.216 55.9017 213.889 56.3153 215.552C55.0762 213.744 53.9036 211.929 52.8426 210.104C52.2012 208.367 51.6246 206.621 51.1299 204.864ZM47.72 199.464C48.665 201.064 49.6236 202.663 50.6963 204.261C51.102 205.758 51.6045 207.242 52.1163 208.725C50.4084 205.657 48.9553 202.568 47.72 199.464ZM128.205 261.302C130.899 262.787 133.57 264.272 136.395 265.758C136.14 266.509 135.879 267.265 135.628 268.014C132.811 266.681 130.017 265.347 127.328 264.005C127.619 263.105 127.904 262.209 128.205 261.302ZM119.865 256.598C122.518 258.13 125.232 259.663 128.011 261.197C127.709 262.106 127.425 263.003 127.133 263.905C124.333 262.506 121.545 261.106 118.904 259.697C119.223 258.665 119.53 257.641 119.865 256.598ZM111.637 251.749C114.217 253.327 116.943 254.907 119.676 256.486C119.34 257.531 119.025 258.56 118.703 259.594C115.903 258.097 113.249 256.59 110.613 255.082C110.939 253.981 111.296 252.859 111.637 251.749ZM103.546 246.612C106.117 248.282 108.713 249.954 111.444 251.626C111.103 252.738 110.736 253.865 110.409 254.968C107.684 253.406 105.058 251.838 102.504 250.265C102.833 249.059 103.197 247.831 103.546 246.612ZM95.6111 241.271C98.1185 243.008 100.673 244.746 103.347 246.486C102.996 247.707 102.635 248.934 102.305 250.143C99.658 248.51 97.0855 246.872 94.618 245.229C94.9309 243.919 95.2663 242.597 95.6111 241.271ZM87.8844 235.733C90.3047 237.53 92.8118 239.329 95.4067 241.13C95.0594 242.459 94.7285 243.779 94.4135 245.091C91.8578 243.384 89.3692 241.674 87.0032 239.957C87.2794 238.558 87.5637 237.154 87.8844 235.733ZM80.4314 230.003C82.747 231.857 85.1738 233.715 87.6731 235.575C87.3494 236.997 87.0707 238.399 86.7926 239.799C84.3495 238.021 81.9746 236.24 79.731 234.452C79.9451 232.978 80.1572 231.503 80.4314 230.003ZM73.3226 224.092C75.514 225.998 77.8285 227.909 80.2106 229.821C79.933 231.323 79.7282 232.794 79.5115 234.27C77.2053 232.427 74.9735 230.58 72.8742 228.727C73.0005 227.191 73.1207 225.656 73.3226 224.092ZM66.6377 218.031C68.684 219.982 70.8618 221.938 73.1053 223.895C72.9007 225.453 72.7732 226.981 72.6427 228.511C70.4943 226.608 68.4448 224.699 66.5083 222.788C66.5204 221.212 66.5364 219.635 66.6377 218.031ZM60.4412 211.802C62.3345 213.798 64.3138 215.797 66.4092 217.802C66.303 219.399 66.2761 220.972 66.2575 222.543C64.2921 220.594 62.4492 218.639 60.6977 216.683C60.5718 215.067 60.4636 213.445 60.4412 211.802ZM54.8116 205.518C56.5153 207.523 58.2841 209.532 60.1874 211.547C60.2032 213.177 60.3033 214.787 60.4209 216.391C58.6679 214.422 57.0424 212.448 55.4994 210.474C55.2188 208.831 54.9792 207.182 54.8116 205.518ZM49.8177 199.268C51.2964 201.23 52.8358 203.196 54.5013 205.169C54.6585 206.822 54.9086 208.458 55.1809 210.089C53.665 208.132 52.2701 206.171 50.9526 204.21C50.5119 202.571 50.1423 200.922 49.8177 199.268ZM45.5404 193.203C46.7698 195.059 48.0456 196.919 49.4382 198.785C49.7434 200.406 50.1301 202.017 50.5498 203.623C49.3045 201.742 48.1619 199.859 47.0931 197.976C46.5001 196.389 46.0175 194.796 45.5404 193.203ZM42.1929 187.796C43.0964 189.347 44.015 190.9 45.0303 192.459C45.4369 193.875 45.9055 195.289 46.395 196.701C44.7719 193.732 43.4012 190.763 42.1929 187.796ZM175.613 284.699C174.152 283.97 172.707 283.243 171.288 282.518C173.853 283.66 176.367 284.802 179.011 285.943C177.878 285.528 176.73 285.115 175.613 284.699ZM120.681 254.15C123.298 255.806 125.937 257.464 128.685 259.131C128.471 259.764 128.278 260.382 128.072 261.009C125.296 259.475 122.58 257.941 119.928 256.408C120.172 255.661 120.435 254.9 120.681 254.15ZM112.532 248.883C115.129 250.595 117.772 252.311 120.493 254.034C120.246 254.785 119.983 255.547 119.739 256.297C117.007 254.715 114.279 253.133 111.698 251.552C111.97 250.666 112.249 249.776 112.532 248.883ZM104.446 243.457C106.987 245.214 109.656 246.985 112.34 248.756C112.056 249.651 111.779 250.542 111.505 251.43C108.776 249.757 106.172 248.084 103.603 246.413C103.883 245.428 104.147 244.452 104.446 243.457ZM96.5232 237.823C99.0232 239.647 101.596 241.478 104.25 243.318C103.949 244.318 103.686 245.297 103.404 246.287C100.729 244.543 98.1715 242.803 95.6636 241.062C95.9429 239.986 96.2207 238.911 96.5232 237.823ZM88.7889 231.993C91.2376 233.884 93.7191 235.778 96.3288 237.685C96.0259 238.771 95.7397 239.847 95.4589 240.921C92.8622 239.116 90.3522 237.313 87.9309 235.512C88.197 234.348 88.4961 233.169 88.7889 231.993ZM81.2596 225.999C83.6208 227.938 86.0599 229.884 88.5889 231.84C88.2955 233.013 87.9872 234.192 87.7192 235.353C85.2164 233.487 82.7871 231.624 80.4691 229.763C80.7022 228.521 80.9936 227.255 81.2596 225.999ZM73.9981 219.85C76.2557 221.833 78.6196 223.827 81.0529 225.828C80.7853 227.082 80.4906 228.346 80.2544 229.587C77.8696 227.668 75.5537 225.751 73.361 223.839C73.5391 222.522 73.7773 221.183 73.9981 219.85ZM67.0727 213.568C69.2072 215.586 71.4651 217.618 73.7816 219.656C73.5576 220.99 73.326 222.326 73.1455 223.644C70.8958 221.676 68.7159 219.71 66.665 217.75C66.7622 216.368 66.9209 214.966 67.0727 213.568ZM60.5567 207.184C62.5445 209.224 64.6681 211.281 66.8424 213.342C66.6868 214.741 66.5364 216.138 66.4362 217.52C64.3395 215.508 62.3376 213.5 60.4439 211.497C60.436 210.071 60.4985 208.627 60.5567 207.184ZM54.5207 200.677C56.3615 202.745 58.2759 204.824 60.3074 206.916C60.2437 208.364 60.1913 209.809 60.1955 211.24C58.2712 209.196 56.4768 207.157 54.7576 205.122C54.6232 203.651 54.5763 202.163 54.5207 200.677ZM49.0294 194.177C50.687 196.234 52.401 198.299 54.2452 200.38C54.2939 201.863 54.3559 203.344 54.4824 204.813C52.7791 202.785 51.2042 200.764 49.6982 198.748C49.416 197.231 49.2187 195.705 49.0294 194.177ZM44.152 187.776C45.5955 189.773 47.0959 191.779 48.7148 193.8C48.8915 195.301 49.0758 196.801 49.3393 198.291C47.8888 196.33 46.5615 194.377 45.2912 192.428C44.8492 190.881 44.491 189.328 44.152 187.776ZM39.9649 181.628C41.1666 183.496 42.4162 185.372 43.7699 187.262C44.0798 188.738 44.3825 190.214 44.7809 191.684C43.6147 189.863 42.568 188.05 41.5531 186.24C40.9627 184.702 40.4491 183.165 39.9649 181.628ZM36.6846 176.23C37.5616 177.76 38.4714 179.295 39.4495 180.841C39.8421 182.138 40.2193 183.434 40.6821 184.732C39.1473 181.882 37.8595 179.051 36.6846 176.23ZM161.582 277.929C160.487 277.274 159.391 276.618 158.303 275.963C160.748 277.272 163.317 278.59 165.868 279.907C164.422 279.248 163 278.589 161.582 277.929ZM168.552 282.05C166.763 281.008 165.008 279.972 163.262 278.938C164.972 279.725 166.79 280.512 168.54 281.299C170.347 282.231 172.12 283.16 173.96 284.093C172.148 283.413 170.321 282.734 168.552 282.05ZM175.748 286.17C173.729 285.019 171.694 283.866 169.73 282.724C171.616 283.448 173.621 284.162 175.555 284.881C177.587 285.905 179.702 286.935 181.797 287.964C179.78 287.366 177.712 286.776 175.748 286.17ZM113.173 246.83C115.731 248.657 118.365 250.497 121.055 252.347C120.888 252.846 120.72 253.347 120.555 253.845C117.839 252.121 115.187 250.403 112.592 248.689C112.786 248.069 112.971 247.455 113.173 246.83ZM105.2 241.015C107.744 242.9 110.316 244.79 112.983 246.697C112.779 247.325 112.596 247.94 112.401 248.562C109.717 246.789 107.044 245.016 104.503 243.256C104.728 242.513 104.968 241.762 105.2 241.015ZM97.3239 235.083C99.8062 237 102.397 238.936 105.014 240.877C104.782 241.622 104.534 242.375 104.308 243.116C101.658 241.278 99.0763 239.446 96.5812 237.623C96.8189 236.782 97.0778 235.929 97.3239 235.083ZM89.5649 228.97C91.9996 230.941 94.5485 232.934 97.1331 234.932C96.8844 235.783 96.6263 236.639 96.3875 237.485C93.7769 235.575 91.2914 233.677 88.8426 231.783C89.0759 230.848 89.3138 229.912 89.5649 228.97ZM81.9753 222.634C84.3796 224.683 86.803 226.735 89.3652 228.812C89.1124 229.757 88.8776 230.694 88.6431 231.63C86.1123 229.669 83.6692 227.718 81.3072 225.775C81.526 224.73 81.7267 223.691 81.9753 222.634ZM74.627 216.195C76.9307 218.269 79.3025 220.356 81.7685 222.46C81.5174 223.519 81.3207 224.557 81.1004 225.604C78.6642 223.597 76.2962 221.597 74.0368 219.608C74.2231 218.474 74.4028 217.342 74.627 216.195ZM67.56 209.656C69.7586 211.758 72.0581 213.879 74.4243 216.012C74.1988 217.155 74.0095 218.284 73.8204 219.414C71.4989 217.366 69.2365 215.326 67.099 213.299C67.2319 212.091 67.3821 210.877 67.56 209.656ZM60.8207 203.028C62.8973 205.149 65.0974 207.294 67.347 209.449C67.1671 210.663 67.0055 211.872 66.8688 213.073C64.6865 210.999 62.5583 208.929 60.5647 206.877C60.6206 205.601 60.7104 204.317 60.8207 203.028ZM54.4802 196.345C56.4144 198.472 58.4825 200.626 60.5937 202.788C60.4801 204.067 60.3771 205.343 60.3155 206.609C58.2826 204.509 56.3433 202.42 54.5026 200.343C54.4593 199.016 54.4591 197.683 54.4802 196.345ZM48.6051 189.586C50.401 191.73 52.2568 193.886 54.2331 196.066C54.2067 197.397 54.1916 198.726 54.2271 200.046C52.3679 197.94 50.6405 195.849 48.9726 193.768C48.8087 192.378 48.6925 190.984 48.6051 189.586ZM43.2562 182.892C44.8723 185.002 46.5394 187.123 48.3308 189.27C48.41 190.647 48.5061 192.022 48.6577 193.391C47.0132 191.325 45.4909 189.276 44.0285 187.236C43.7244 185.79 43.4724 184.342 43.2562 182.892ZM38.4977 176.357C39.9057 178.386 41.3684 180.427 42.9402 182.491C43.142 183.903 43.3635 185.314 43.6469 186.723C42.2404 184.742 40.948 182.776 39.7086 180.819C39.2557 179.33 38.8528 177.843 38.4977 176.357ZM34.4049 170.144C35.5763 172.019 36.8004 173.906 38.1126 175.813C38.4367 177.219 38.7842 178.625 39.1932 180.033C38.0566 178.208 37.0246 176.399 36.0283 174.596C35.4411 173.108 34.8943 171.623 34.4049 170.144ZM31.1956 164.771C32.0423 166.273 32.9452 167.788 33.8826 169.311C34.2724 170.533 34.6603 171.755 35.115 172.984C33.6463 170.22 32.3467 167.483 31.1956 164.771ZM154.247 274.453C152.394 273.202 150.544 271.952 148.734 270.711C150.557 271.723 152.377 272.735 154.246 273.751C156.068 274.86 157.949 275.979 159.824 277.097C157.943 276.215 156.081 275.334 154.247 274.453ZM161.185 279.125C159.182 277.793 157.24 276.476 155.278 275.153C157.338 276.137 159.388 277.121 161.505 278.105C163.437 279.255 165.339 280.401 167.31 281.557C165.235 280.749 163.203 279.938 161.185 279.125ZM168.355 283.799C166.226 282.415 164.062 281.023 161.996 279.654C164.145 280.514 166.276 281.376 168.489 282.232C170.565 283.443 172.738 284.67 174.883 285.892C172.661 285.202 170.513 284.5 168.355 283.799ZM175.263 288.302C173.129 286.926 171.068 285.567 168.967 284.198C171.196 284.918 173.39 285.644 175.687 286.353C177.78 287.549 179.831 288.74 181.954 289.941C179.67 289.408 177.48 288.852 175.263 288.302ZM105.725 239.376C108.201 241.348 110.806 243.353 113.413 245.358C113.286 245.742 113.165 246.123 113.043 246.504C110.383 244.598 107.801 242.705 105.262 240.82C105.414 240.341 105.573 239.856 105.725 239.376ZM97.9227 233.035C100.418 235.09 102.924 237.147 105.541 239.233C105.388 239.715 105.228 240.2 105.077 240.682C102.462 238.739 99.8647 236.799 97.3834 234.879C97.5617 234.266 97.7368 233.653 97.9227 233.035ZM90.1892 226.569C92.6313 228.654 95.1634 230.762 97.7327 232.88C97.5455 233.499 97.3713 234.113 97.1925 234.729C94.6112 232.73 92.0495 230.734 89.618 228.763C89.8091 228.031 89.9825 227.307 90.1892 226.569ZM82.6351 220.033C84.992 222.132 87.5028 224.271 90.0028 226.408C89.7954 227.146 89.6118 227.873 89.4189 228.605C86.8557 226.524 84.4265 224.467 82.0222 222.414C82.2122 221.626 82.4351 220.825 82.6351 220.033ZM75.2602 213.275C77.6017 215.458 79.9474 217.642 82.4407 219.864C82.2402 220.654 82.0091 221.455 81.8168 222.242C79.3523 220.135 76.9782 218.045 74.6759 215.968C74.8559 215.076 75.0646 214.173 75.2602 213.275ZM68.0857 206.415C70.3375 208.62 72.6495 210.842 75.0575 213.09C74.8603 213.989 74.6546 214.892 74.4734 215.786C72.1043 213.646 69.7999 211.518 67.6 209.41C67.7475 208.416 67.9106 207.417 68.0857 206.415ZM61.1704 199.473C63.3184 201.694 65.5629 203.941 67.8723 206.206C67.6948 207.209 67.5361 208.208 67.3868 209.203C65.1324 207.038 62.9279 204.884 60.8479 202.753C60.9418 201.663 61.0359 200.572 61.1704 199.473ZM54.5793 192.484C56.6043 194.708 58.7519 196.965 60.9423 199.234C60.8046 200.334 60.7163 201.423 60.6207 202.514C58.5038 200.34 56.4263 198.174 54.4882 196.036C54.5045 194.854 54.5074 193.675 54.5793 192.484ZM48.4054 185.516C50.2845 187.721 52.2962 189.964 54.3426 192.217C54.2664 193.402 54.2616 194.576 54.2411 195.752C52.2639 193.563 50.3818 191.393 48.5866 189.242C48.507 188.002 48.4186 186.762 48.4054 185.516ZM42.6956 178.53C44.445 180.741 46.24 182.966 48.1597 185.225C48.1674 186.463 48.2404 187.694 48.3122 188.926C46.5051 186.752 44.8236 184.604 43.1974 182.468C43.0032 181.157 42.8132 179.844 42.6956 178.53ZM37.4921 171.664C39.0644 173.819 40.6835 175.989 42.4208 178.193C42.5298 179.485 42.6995 180.777 42.8812 182.067C41.2828 179.956 39.7975 177.869 38.3704 175.795C38.0447 174.417 37.7303 173.039 37.4921 171.664ZM32.8559 165.016C34.2264 167.07 35.6516 169.139 37.1742 171.237C37.3973 172.574 37.6816 173.912 37.9855 175.251C36.6187 173.247 35.352 171.266 34.1405 169.297C33.6758 167.867 33.2255 166.437 32.8559 165.016ZM28.8602 158.754C29.9989 160.63 31.1989 162.524 32.4669 164.438C32.8035 165.775 33.1989 167.119 33.6184 168.464C32.515 166.643 31.4941 164.842 30.5199 163.05C29.9372 161.613 29.3511 160.176 28.8602 158.754ZM26.1164 154.164C26.8011 155.383 27.5886 156.633 28.3284 157.869C28.7128 159.021 29.1402 160.181 29.5888 161.345C28.32 158.924 27.1565 156.529 26.1164 154.164ZM132.779 259.972C131.866 259.252 130.948 258.53 130.034 257.809C132.322 259.474 134.754 261.174 137.167 262.869C135.656 261.896 134.256 260.94 132.779 259.972ZM137.181 263.441C136.311 262.762 135.485 262.097 134.614 261.418C135.51 262.001 136.364 262.577 137.276 263.163C137.245 263.255 137.213 263.348 137.181 263.441ZM139.775 265.435C138.973 264.818 138.147 264.194 137.358 263.581C137.393 263.48 137.427 263.379 137.461 263.279C138.297 263.813 139.173 264.353 140.016 264.888C141.769 266.117 143.453 267.329 145.24 268.566C143.383 267.519 141.569 266.477 139.775 265.435ZM153.98 276.191C151.914 274.648 149.93 273.132 147.903 271.601C149.941 272.61 152.068 273.618 154.167 274.626C156.215 276.01 158.217 277.382 160.305 278.775C158.179 277.916 156.042 277.056 153.98 276.191ZM161.154 281.441C158.989 279.86 156.778 278.263 154.682 276.704C156.769 277.576 158.964 278.438 161.116 279.304C163.241 280.716 165.482 282.154 167.678 283.582C165.495 282.869 163.269 282.164 161.154 281.441ZM168.081 286.511C165.92 284.944 163.826 283.398 161.701 281.842C163.829 282.566 166.093 283.268 168.289 283.98C170.43 285.376 172.537 286.764 174.712 288.168C172.498 287.616 170.226 287.079 168.081 286.511ZM175.136 291.533C172.93 289.967 170.662 288.381 168.528 286.838C170.68 287.405 172.98 287.936 175.2 288.486C177.353 289.87 179.645 291.287 181.874 292.689C179.632 292.302 177.307 291.943 175.136 291.533ZM137.294 263.771C137.663 264.059 138.042 264.35 138.415 264.64C138.018 264.409 137.628 264.179 137.233 263.949L137.294 263.771ZM129.447 257.587C129.92 257.959 130.383 258.327 130.859 258.699C130.368 258.376 129.886 258.054 129.397 257.731C129.414 257.683 129.431 257.634 129.447 257.587ZM98.2938 231.765C100.715 233.892 103.302 236.074 105.857 238.246C105.772 238.511 105.687 238.775 105.603 239.04C102.988 236.952 100.475 234.891 97.9813 232.835C98.0857 232.478 98.1835 232.125 98.2938 231.765ZM90.6789 224.936C93.1174 227.145 95.5466 229.352 98.1061 231.602C97.9944 231.964 97.8965 232.32 97.7914 232.679C95.2242 230.56 92.6917 228.451 90.2503 226.365C90.3885 225.891 90.5423 225.41 90.6789 224.936ZM83.1621 218.026C85.5415 220.252 87.9924 222.503 90.4936 224.77C90.356 225.246 90.2026 225.728 90.0639 226.204C87.5648 224.067 85.0447 221.924 82.6895 219.824C82.8425 219.227 83.0029 218.626 83.1621 218.026ZM75.7509 211.014C78.0604 213.258 80.5231 215.554 82.9702 217.846C82.81 218.448 82.651 219.05 82.497 219.649C80.0056 217.426 77.6475 215.237 75.3083 213.054C75.4541 212.374 75.5904 211.698 75.7509 211.014ZM68.5361 203.834C70.8129 206.14 73.1285 208.459 75.5509 210.815C75.3877 211.504 75.2533 212.184 75.1058 212.868C72.6942 210.614 70.3789 208.386 68.1247 206.175C68.2577 205.396 68.3815 204.619 68.5361 203.834ZM61.5779 196.619C63.7655 198.935 66.0008 201.268 68.3374 203.637C68.182 204.417 68.0471 205.191 67.9112 205.967C65.5969 203.692 63.3483 201.437 61.1966 199.208C61.3064 198.348 61.4477 197.483 61.5779 196.619ZM54.8747 189.364C56.9578 191.68 59.132 194.027 61.3671 196.397C61.2362 197.254 61.0824 198.116 60.9682 198.969C58.773 196.69 56.6232 194.424 54.5947 192.191C54.6628 191.253 54.7852 190.306 54.8747 189.364ZM48.4918 182.113C50.4507 184.412 52.535 186.757 54.6497 189.111C54.5568 190.053 54.4414 190.999 54.3696 191.938C52.3188 189.675 50.2954 187.42 48.4134 185.205C48.4143 184.177 48.4597 183.144 48.4918 182.113ZM42.4957 174.893C44.3207 177.168 46.2633 179.485 48.2459 181.817C48.2096 182.847 48.1713 183.877 48.1679 184.904C46.2464 182.635 44.4249 180.396 42.6762 178.177C42.5891 177.083 42.541 175.988 42.4957 174.893ZM36.9398 167.705C38.6381 169.967 40.3629 172.241 42.2206 174.562C42.261 175.655 42.3171 176.748 42.4011 177.839C40.6476 175.607 39.0146 173.409 37.4309 171.226C37.239 170.051 37.08 168.877 36.9398 167.705ZM31.8887 160.712C33.4027 162.882 34.9606 165.068 36.6247 167.295C36.7569 168.462 36.9254 169.63 37.1131 170.799C35.5621 168.651 34.1152 166.533 32.7242 164.432C32.4164 163.189 32.1375 161.949 31.8887 160.712ZM27.4143 154.05C28.7159 156.068 30.075 158.107 31.5097 160.176C31.7462 161.398 32.0344 162.626 32.3354 163.855C31.0104 161.836 29.7695 159.843 28.5879 157.869C28.1699 156.591 27.774 155.317 27.4143 154.05ZM23.6515 148.021C24.6802 149.75 25.789 151.51 26.9185 153.278C27.254 154.505 27.6531 155.745 28.0568 156.985C26.9896 155.175 25.9792 153.383 25.0298 151.61C24.54 150.406 24.0871 149.211 23.6515 148.021ZM20.9599 143.351C21.569 144.449 22.2293 145.567 22.8794 146.681C23.2394 147.711 23.6666 148.758 24.0767 149.801C22.9507 147.623 21.9131 145.473 20.9599 143.351ZM118.235 248.825C117.048 247.777 115.92 246.754 114.752 245.714C116.954 247.533 119.176 249.358 121.433 251.196C120.38 250.409 119.27 249.608 118.235 248.825ZM121.333 251.514C120.924 251.158 120.501 250.796 120.098 250.443C120.516 250.756 120.951 251.074 121.374 251.389L121.333 251.514ZM125.576 255.197C124.207 254.015 122.854 252.839 121.509 251.667L121.557 251.524C122.66 252.344 123.767 253.165 124.879 253.987C126.303 255.128 127.792 256.29 129.272 257.449C129.254 257.502 129.235 257.557 129.216 257.61C127.993 256.804 126.761 255.997 125.576 255.197ZM129.016 258.184C128.239 257.51 127.474 256.842 126.692 256.166C127.498 256.708 128.334 257.254 129.151 257.796C129.105 257.926 129.059 258.056 129.016 258.184ZM132.491 261.174C131.376 260.222 130.275 259.274 129.187 258.332C129.233 258.195 129.283 258.056 129.332 257.917C130.448 258.659 131.554 259.399 132.692 260.144C134.189 261.314 135.631 262.465 137.117 263.631L137.047 263.839C135.516 262.95 133.977 262.06 132.491 261.174ZM136.741 264.739C135.609 263.793 134.458 262.838 133.364 261.907C134.551 262.611 135.774 263.318 136.983 264.024C136.903 264.262 136.822 264.501 136.741 264.739ZM153.73 278.805C151.532 277.021 149.275 275.212 147.145 273.456C149.374 274.429 151.602 275.403 153.908 276.371C156.049 277.966 158.32 279.603 160.536 281.222C158.215 280.425 155.971 279.615 153.73 278.805ZM160.66 284.437C158.469 282.669 156.335 280.924 154.181 279.172C156.461 279.992 158.722 280.815 161.084 281.623C163.24 283.203 165.372 284.775 167.566 286.367C165.203 285.738 162.943 285.085 160.66 284.437ZM167.658 290.003C165.444 288.247 163.188 286.474 161.04 284.745C163.351 285.398 165.621 286.061 168.014 286.695C170.17 288.255 172.451 289.856 174.679 291.44C172.27 290.983 169.983 290.487 167.658 290.003ZM174.599 295.475C172.397 293.74 170.169 291.995 168.001 290.273C170.349 290.759 172.643 291.263 175.076 291.721C177.255 293.273 179.481 294.839 181.688 296.4C179.249 296.122 176.953 295.787 174.599 295.475ZM136.85 265.076C137.557 265.667 138.247 266.251 138.957 266.843C138.203 266.453 137.4 266.061 136.648 265.671L136.85 265.076ZM132.402 261.344C133.781 262.52 135.236 263.728 136.676 264.93L136.457 265.574C133.634 264.087 130.957 262.601 128.266 261.115C128.47 260.491 128.66 259.877 128.872 259.248C130.025 259.944 131.23 260.645 132.402 261.344ZM129.12 258.523C129.917 259.217 130.709 259.908 131.528 260.611C130.664 260.094 129.786 259.575 128.934 259.059C128.994 258.881 129.06 258.7 129.12 258.523ZM125.479 255.362C126.643 256.37 127.797 257.373 128.949 258.374C128.885 258.563 128.816 258.754 128.75 258.944C126.008 257.277 123.355 255.618 120.744 253.962C120.907 253.468 121.074 252.971 121.239 252.475C122.636 253.435 124.049 254.397 125.479 255.362ZM121.445 251.86C122.42 252.706 123.38 253.545 124.362 254.393C123.321 253.687 122.32 252.987 121.303 252.285C121.35 252.143 121.397 252.002 121.445 251.86ZM118.136 248.987C119.148 249.88 120.219 250.798 121.268 251.707C121.218 251.857 121.168 252.006 121.119 252.156C118.436 250.307 115.784 248.464 113.233 246.638C113.353 246.257 113.465 245.881 113.592 245.497C115.101 246.659 116.584 247.814 118.136 248.987ZM113.742 245.058C114.591 245.825 115.438 246.591 116.303 247.365C115.393 246.671 114.547 245.994 113.657 245.306C113.686 245.223 113.715 245.14 113.742 245.058ZM111.568 243.101C112.238 243.703 112.905 244.303 113.569 244.902C113.54 244.99 113.509 245.078 113.478 245.166C110.873 243.162 108.259 241.154 105.787 239.183C105.871 238.922 105.955 238.662 106.038 238.401C107.878 239.967 109.671 241.516 111.568 243.101ZM106.107 238.184C106.301 238.359 106.498 238.534 106.688 238.707C106.49 238.538 106.296 238.372 106.101 238.204L106.107 238.184ZM98.4831 231.118C100.937 233.408 103.38 235.694 105.929 238.023L105.92 238.049C103.362 235.876 100.787 233.697 98.3526 231.565C98.3953 231.416 98.4366 231.268 98.4831 231.118ZM90.9507 224.03C93.3167 226.3 95.8112 228.624 98.2979 230.944C98.2509 231.097 98.2088 231.247 98.1657 231.397C95.5976 229.145 93.1829 226.944 90.7396 224.734C90.8095 224.499 90.8821 224.264 90.9507 224.03ZM83.497 216.752C85.8748 219.099 88.2705 221.454 90.7687 223.852C90.6988 224.09 90.6255 224.329 90.5546 224.567C88.0427 222.294 85.6071 220.045 83.2181 217.813C83.3103 217.46 83.3998 217.107 83.497 216.752ZM76.1293 209.362C78.4677 211.74 80.8467 214.136 83.3064 216.566C83.2084 216.923 83.1194 217.277 83.0262 217.633C80.5678 215.334 78.1188 213.038 75.7999 210.787C75.9083 210.313 76.0114 209.84 76.1293 209.362ZM68.9479 201.974C71.1933 204.336 73.5669 206.753 75.9423 209.171C75.8249 209.645 75.7108 210.117 75.6001 210.588C73.1754 208.232 70.8633 205.914 68.5859 203.609C68.6996 203.066 68.8326 202.518 68.9479 201.974ZM61.9351 194.449C64.1431 196.859 66.4055 199.294 68.7515 201.764C68.6342 202.312 68.5021 202.864 68.3871 203.411C66.0411 201.034 63.8138 198.698 61.618 196.374C61.7171 195.734 61.8253 195.091 61.9351 194.449ZM55.1252 186.839C57.2675 189.275 59.439 191.724 61.7251 194.223C61.6133 194.868 61.508 195.511 61.4074 196.153C59.1616 193.772 56.9935 191.419 54.9016 189.093C54.9713 188.342 55.033 187.593 55.1252 186.839ZM48.5775 179.235C50.6097 181.651 52.7209 184.103 54.8999 186.584C54.8049 187.339 54.7473 188.088 54.6766 188.84C52.5486 186.469 50.4697 184.117 48.4995 181.803C48.52 180.947 48.5211 180.094 48.5775 179.235ZM42.4063 171.755C44.3004 174.119 46.314 176.538 48.3542 178.967C48.2957 179.816 48.2796 180.661 48.2538 181.507C46.2645 179.166 44.3062 176.836 42.4765 174.553C42.4382 173.621 42.4078 172.688 42.4063 171.755ZM36.6142 164.341C38.3825 166.671 40.2454 169.044 42.1607 171.441C42.158 172.361 42.1699 173.282 42.201 174.201C40.3326 171.863 38.5881 169.569 36.8823 167.291C36.7701 166.306 36.6873 165.323 36.6142 164.341ZM31.2523 157.025C32.8935 159.321 34.5508 161.625 36.3388 163.989C36.4056 164.952 36.4659 165.915 36.5672 166.881C34.8746 164.612 33.3038 162.387 31.7684 160.177C31.5668 159.123 31.411 158.074 31.2523 157.025ZM26.3848 149.981C27.842 152.156 29.3411 154.35 30.9346 156.589C31.0823 157.606 31.2061 158.619 31.3893 159.64C29.9055 157.492 28.5186 155.379 27.1791 153.285C26.8797 152.177 26.6381 151.08 26.3848 149.981ZM22.0915 143.368C23.3323 145.353 24.6419 147.368 25.9998 149.407C26.2316 150.449 26.4302 151.485 26.6966 152.534C25.4482 150.563 24.266 148.618 23.1426 146.695C22.7542 145.577 22.4333 144.475 22.0915 143.368ZM18.5503 137.6C19.4944 139.216 20.56 140.889 21.5849 142.543C21.8882 143.559 22.1773 144.572 22.5081 145.595C21.5308 143.895 20.5711 142.202 19.69 140.539C19.2726 139.547 18.9285 138.579 18.5503 137.6ZM15.7926 132.622C16.4372 133.801 17.0728 134.976 17.7609 136.176C18.0297 136.902 18.3048 137.63 18.5796 138.358C17.5928 136.422 16.6517 134.506 15.7926 132.622ZM145.562 268.557L145.612 268.412C147.156 269.378 148.635 270.334 150.204 271.304C149.147 270.72 148.068 270.134 147.026 269.551C146.533 269.219 146.036 268.885 145.562 268.557ZM145.21 269.559C145.285 269.339 145.365 269.116 145.443 268.895C145.933 269.171 146.454 269.449 146.947 269.725C148.965 271.115 151.056 272.522 153.136 273.926C151.081 272.934 149.039 271.942 147.043 270.949C146.432 270.486 145.82 270.021 145.21 269.559ZM145.073 269.949C145.097 269.881 145.122 269.812 145.145 269.745L146.102 270.471C145.753 270.297 145.42 270.123 145.073 269.949ZM144.595 271.328C144.73 270.932 144.869 270.532 145.009 270.132C145.667 270.462 146.297 270.793 146.961 271.123C149.051 272.704 151.078 274.264 153.207 275.858C150.962 274.911 148.768 273.961 146.597 273.008C145.92 272.444 145.278 271.895 144.595 271.328ZM144.358 272.043C144.415 271.869 144.471 271.696 144.531 271.52C145.031 271.935 145.509 272.34 145.997 272.75C145.46 272.513 144.89 272.28 144.358 272.043ZM143.404 274.925C143.703 274.025 143.989 273.135 144.297 272.228C145.017 272.548 145.785 272.864 146.514 273.183C148.673 274.966 150.971 276.806 153.202 278.618C149.847 277.401 146.586 276.169 143.404 274.925ZM142.147 278.723C142.538 277.525 142.94 276.319 143.342 275.112C146.684 276.418 150.12 277.709 153.653 278.985C155.83 280.757 157.992 282.523 160.207 284.31C153.908 282.514 147.832 280.664 142.147 278.723ZM140.67 283.292C141.129 281.842 141.607 280.379 142.084 278.914C147.901 280.898 154.129 282.786 160.587 284.619C162.754 286.364 165.019 288.148 167.249 289.92C157.709 287.924 148.834 285.718 140.67 283.292ZM138.989 288.74C139.519 286.998 140.051 285.253 140.61 283.485C148.89 285.943 157.9 288.175 167.593 290.19C169.772 291.922 172.019 293.681 174.237 295.428C161.226 293.693 149.482 291.456 138.989 288.74ZM137.116 295.046C137.699 293.029 138.303 290.993 138.927 288.94C149.52 291.677 161.385 293.926 174.538 295.666C176.251 297.016 177.913 298.346 179.677 299.717C180.164 300.096 180.64 300.47 181.12 300.846C164.395 299.875 149.742 297.924 137.116 295.046ZM126.85 363.063C127.121 365.57 127.529 367.929 128.06 370.154C125.778 367.04 124.092 363.3 122.905 359.049C124.091 360.514 125.403 361.856 126.85 363.063ZM126.369 354.527C126.379 357.307 126.515 359.955 126.769 362.474C125.264 361.175 123.902 359.735 122.681 358.156C122.094 355.897 121.627 353.517 121.309 350.987C122.845 352.306 124.525 353.492 126.369 354.527ZM126.732 345.615C126.517 348.545 126.386 351.388 126.381 354.098C124.5 353.02 122.791 351.783 121.23 350.408C120.934 347.923 120.743 345.333 120.694 342.601C122.545 343.745 124.547 344.76 126.732 345.615ZM127.706 336.429C127.302 339.463 126.982 342.413 126.765 345.256C124.557 344.377 122.539 343.335 120.674 342.161C120.637 339.527 120.695 336.799 120.875 333.952C122.988 334.908 125.279 335.723 127.706 336.429ZM129.149 327.285C128.604 330.313 128.135 333.266 127.748 336.136C125.308 335.419 123.022 334.578 120.906 333.602C121.088 330.873 121.368 328.049 121.731 325.146C124.063 325.962 126.535 326.675 129.149 327.285ZM130.907 318.441C130.273 321.363 129.705 324.222 129.198 327.02C126.581 326.403 124.102 325.687 121.773 324.86C122.119 322.134 122.538 319.339 123.036 316.47C125.527 317.215 128.147 317.875 130.907 318.441ZM132.841 310.071C132.161 312.831 131.541 315.533 130.961 318.197C128.199 317.626 125.578 316.961 123.085 316.211C123.546 313.57 124.055 310.885 124.639 308.132C127.249 308.852 129.975 309.503 132.841 310.071ZM134.824 302.312C134.134 304.867 133.511 307.361 132.899 309.844C130.031 309.273 127.304 308.618 124.693 307.894C125.224 305.398 125.789 302.872 126.415 300.292C129.104 301.026 131.895 301.705 134.824 302.312ZM136.838 295.201C136.169 297.515 135.501 299.828 134.887 302.092C131.956 301.483 129.157 300.804 126.466 300.069C127.026 297.773 127.653 295.419 128.283 293.063C131.026 293.825 133.898 294.529 136.838 295.201ZM138.716 288.884C138.091 290.937 137.482 292.975 136.897 294.992C133.955 294.317 131.085 293.61 128.339 292.846C128.901 290.75 129.495 288.627 130.109 286.486C132.886 287.32 135.761 288.117 138.716 288.884ZM140.399 283.425C139.839 285.196 139.309 286.939 138.778 288.684C135.821 287.916 132.946 287.117 130.169 286.28C130.701 284.424 131.217 282.581 131.79 280.69C134.576 281.627 137.434 282.542 140.399 283.425ZM141.884 278.841C141.405 280.308 140.921 281.779 140.459 283.232C137.493 282.347 134.635 281.431 131.848 280.492C132.324 278.932 132.848 277.335 133.346 275.758C136.111 276.804 138.942 277.836 141.884 278.841ZM143.143 275.034C142.739 276.244 142.339 277.45 141.947 278.651C139.005 277.645 136.172 276.613 133.406 275.566C133.82 274.254 134.221 272.952 134.653 271.625C137.408 272.773 140.262 273.905 143.143 275.034ZM144.1 272.143C143.791 273.053 143.505 273.944 143.206 274.847C140.323 273.717 137.47 272.583 134.714 271.434C135.054 270.392 135.408 269.34 135.757 268.291C138.483 269.579 141.23 270.865 144.1 272.143ZM144.355 271.372C144.288 271.57 144.225 271.763 144.161 271.958C141.292 270.681 138.545 269.393 135.821 268.105C136.071 267.358 136.332 266.603 136.586 265.855C137.567 266.366 138.617 266.877 139.607 267.389C141.202 268.722 142.736 270.03 144.355 271.372ZM144.822 270.037C144.687 270.419 144.549 270.804 144.42 271.182C143.031 270.03 141.715 268.908 140.346 267.764C141.822 268.522 143.315 269.279 144.822 270.037ZM144.971 269.613C144.943 269.693 144.914 269.773 144.886 269.854C143.139 268.975 141.402 268.097 139.695 267.218C138.76 266.437 137.845 265.664 136.915 264.885L137.17 264.133C138.012 264.626 138.841 265.117 139.694 265.609C141.408 266.93 143.216 268.28 144.971 269.613ZM145.258 268.793C145.184 269.005 145.108 269.217 145.036 269.427C143.712 268.421 142.36 267.406 141.053 266.405C142.431 267.2 143.842 267.996 145.258 268.793ZM145.432 268.299L145.384 268.436C144.561 267.867 143.766 267.305 142.954 266.738C143.781 267.259 144.6 267.777 145.432 268.299ZM182.09 178.398C168.286 208.718 155.394 239.586 145.496 268.115C143.686 266.98 141.899 265.85 140.103 264.718C139.254 264.12 138.424 263.527 137.579 262.93C149.024 229.734 165.105 193.098 182.09 157.942V157.499C165.049 192.74 148.9 229.493 137.399 262.802C134.753 260.936 132.104 259.069 129.572 257.23C142.381 219.738 161.929 177.549 182.09 138.284V137.877C161.881 177.205 142.266 219.498 129.395 257.099C127.871 255.991 126.442 254.907 124.958 253.809C123.839 252.915 122.766 252.037 121.68 251.154C135.618 209.804 158.873 162.402 182.09 119.905V119.514C158.832 162.055 135.508 209.551 121.502 251.007C118.909 248.901 116.352 246.807 113.854 244.732C128.687 199.883 155.964 147.577 182.09 102.73V102.363C155.932 147.239 128.584 199.632 113.677 244.587C113.026 244.046 112.328 243.489 111.683 242.95C109.838 241.293 107.963 239.624 106.171 237.988C121.63 189.962 153.276 133.085 182.09 86.8026V86.4495C153.252 132.744 121.532 189.699 105.992 237.826C103.437 235.492 101.004 233.209 98.5428 230.914C114.365 179.956 150.844 118.827 182.09 72.0412V71.7042C150.829 118.486 114.275 179.684 98.3605 230.743C95.8688 228.419 93.3857 226.098 91.0124 223.823C106.839 170.073 148.731 104.924 182.09 58.5215V58.2027C148.728 104.587 106.76 169.794 90.8309 223.646C88.327 221.244 85.9348 218.89 83.5525 216.54C99.0233 160.077 147.051 91.2278 182.09 46.1867V45.8828C147.058 90.8911 98.9516 159.79 83.3622 216.354C80.8966 213.92 78.5291 211.528 76.1872 209.146C90.8652 149.946 145.949 77.723 182.09 35.0565V34.7709C145.973 77.3903 90.8122 149.655 76.0003 208.956C73.6175 206.531 71.251 204.113 68.9992 201.744C82.2977 139.642 145.652 64.3674 182.09 25.1495V24.8766C145.695 64.0301 82.2611 139.332 68.8027 201.533C66.4526 199.059 64.1852 196.621 61.975 194.207C73.3053 128.854 146.567 50.9714 182.09 16.4595V16.1989C146.634 50.6281 73.2836 128.532 61.7647 193.982C59.469 191.472 57.3017 189.018 55.1515 186.572C63.8242 117.303 149.448 37.2568 182.09 9.00284V8.75456C149.552 36.9025 63.832 116.955 54.9265 186.318C52.7433 183.831 50.6407 181.379 48.6049 178.957C53.7123 104.372 156.287 22.3279 182.09 2.80707V2.57304C156.485 21.9329 53.7653 103.993 48.3817 178.689C46.3297 176.244 44.3182 173.816 42.4142 171.436C42.6076 92.3813 160.67 11.9429 178.88 0L178.537 0C159.522 12.4998 42.7075 92.4462 42.1688 171.122C40.2482 168.716 38.3663 166.328 36.5947 163.989C31.0302 84.2007 152.126 11.3187 171.835 0L171.458 0C150.932 11.8199 31.1851 84.267 36.3192 163.637C34.5122 161.245 32.8477 158.917 31.1922 156.594C19.3487 75.2605 143.227 10.5566 164.672 0L164.244 0C141.846 11.0667 19.6032 75.3752 30.8746 156.158C29.2522 153.873 27.7392 151.638 26.2597 149.419C7.5915 65.6894 133.616 9.72613 157.314 0L156.816 0C132.098 10.1964 8.00993 65.8279 25.8747 148.846C24.4655 146.72 23.1286 144.628 21.847 142.561C-4.15548 55.5121 123.068 8.73565 149.613 0L149.003 0C121.312 9.18199 -3.48113 55.7092 21.3411 141.737C20.1953 139.871 19.0666 138.014 18.0234 136.197C-15.7295 45.0569 110.745 7.6069 141.22 0L140.432 0C108.789 7.99556 -14.4658 45.2795 17.2348 134.774C16.4187 133.324 15.5911 131.87 14.8394 130.451C-26.634 35.0767 94.9465 6.34125 131.146 0L130.037 0C92.9596 6.63346 -23.7381 35.1305 13.097 127.016C-36.5287 28.2105 71.1172 5.23599 115.907 0L114.262 0C67.944 5.66376 -38.7355 29.7599 14.5728 130.419C16.0041 133.713 17.6016 137.075 19.4303 140.528C20.9383 144.132 22.7496 147.834 24.7675 151.602C26.3009 155.349 28.1474 159.173 30.2621 163.06C31.7887 166.861 33.6159 170.712 35.7698 174.614C37.2859 178.47 39.1024 182.354 41.293 186.266C42.792 190.179 44.6106 194.097 46.8316 198.013C48.3548 202.089 50.2493 206.143 52.585 210.158C54.0795 214.229 55.9767 218.243 58.3057 222.188C59.7862 226.312 61.6745 230.349 64.0343 234.272C65.4959 238.453 67.3851 242.51 69.7714 246.409C71.2078 250.651 73.1096 254.722 75.5157 258.595C76.9241 262.902 78.845 266.98 81.2661 270.826C82.6537 275.199 84.5787 279.292 87.0233 283.103C88.3982 287.583 90.3548 291.718 92.8512 295.518C94.2146 300.106 96.1985 304.28 98.7515 308.061C100.098 312.712 102.076 316.896 104.654 320.622C105.985 325.339 107.954 329.538 110.559 333.205C111.883 337.979 113.826 342.209 116.467 345.804C117.78 350.643 119.708 354.896 122.378 358.423C123.666 363.34 125.598 367.598 128.29 371.057C133.449 391.135 149.694 399.096 182.09 387.902V387.622C150.385 398.526 134.225 390.99 128.829 371.665C137.881 382.6 154.803 385.233 182.09 376.271V376.014C154.454 385.059 137.493 382.163 128.601 370.766C128.007 368.459 127.552 366.001 127.244 363.385C137.782 371.859 155.403 373.285 182.09 365.19V364.939C155.251 373.051 137.619 371.491 127.163 362.797C126.878 360.234 126.701 357.555 126.677 354.714C138.41 361.129 156.377 361.723 182.09 354.717V354.477C156.315 361.475 138.355 360.805 126.673 354.275C126.665 351.554 126.793 348.688 127.001 345.741C139.594 350.568 157.59 350.693 182.09 344.892V344.661C157.571 350.446 139.591 350.274 127.033 345.381C127.244 342.52 127.563 339.547 127.964 336.49C141.104 340.246 158.876 340.271 182.09 335.723V335.504C158.874 340.041 141.116 339.991 128.006 336.198C128.388 333.324 128.854 330.367 129.396 327.333C142.817 330.417 160.185 330.586 182.09 327.268V327.055C160.193 330.362 142.841 330.176 129.445 327.068C129.948 324.269 130.513 321.408 131.145 318.483C144.632 321.214 161.476 321.696 182.09 319.554V319.346C161.489 321.48 144.663 320.986 131.199 318.239C131.776 315.574 132.392 312.871 133.07 310.11C146.458 312.738 162.71 313.646 182.09 312.606V312.403C162.727 313.436 146.494 312.521 133.128 309.883C133.738 307.402 134.359 304.911 135.046 302.358C148.217 305.067 163.863 306.465 182.09 306.447V306.247C163.883 306.26 148.254 304.858 135.105 302.144C135.717 299.882 136.39 297.565 137.057 295.255C149.77 298.145 164.534 300.098 181.393 301.059L182.09 301.604V301.367L181.721 301.078L182.09 301.099V300.902L181.448 300.864C180.895 300.431 180.346 300 179.785 299.563C178.108 298.26 176.529 296.996 174.901 295.713C177.265 296.023 179.57 296.357 182.02 296.633L182.09 296.683V296.445L182.077 296.444C179.889 294.897 177.687 293.346 175.523 291.807C177.636 292.203 179.902 292.55 182.09 292.922V292.602C179.97 291.273 177.791 289.931 175.752 288.621C177.862 289.141 179.93 289.67 182.09 290.178V289.804C180.218 288.742 178.408 287.689 176.552 286.63C178.34 287.178 180.239 287.708 182.09 288.246V287.899C180.45 287.094 178.811 286.289 177.208 285.486C178.829 286.084 180.444 286.683 182.09 287.279V287.021C177.467 285.057 172.982 283.091 168.616 281.125C163.719 278.598 158.925 276.078 154.318 273.572C151.368 271.78 148.511 270.002 145.677 268.228C155.519 239.82 168.345 209.074 182.09 178.856V178.398H182.09Z" fill="white"/>
</mask>
<g mask="url(#mask0_219_829)">
<path d="M-38.7363 399.096L-38.7363 -0.000488281L182.089 -0.000488281L182.089 399.096H-38.7363Z" fill="url(#paint0_linear_219_829)" fill-opacity="0.3"/>
</g>
<defs>
<linearGradient id="paint0_linear_219_829" x1="97.739" y1="33.5338" x2="48.8591" y2="344.892" gradientUnits="userSpaceOnUse">
<stop stop-color="#CC33FF"/>
<stop offset="1" stop-color="#FF6699"/>
</linearGradient>
</defs>
</svg>
